<svg width="61" height="60" viewBox="0 0 61 60" fill="none" xmlns="http://www.w3.org/2000/svg">
<path d="M60.0341 0H0.0340576V60H60.0341V0Z" fill="#1877F2"/>
<path d="M45.0341 30C45.0341 21.75 38.2841 15 30.0341 15C21.7841 15 15.0341 21.75 15.0341 30C15.0341 37.5 20.4716 43.6875 27.5966 44.8125V34.3125H23.8466V30H27.5966V26.625C27.5966 22.875 29.8466 20.8125 33.2216 20.8125C34.9091 20.8125 36.5966 21.1875 36.5966 21.1875V24.9375H34.7216C32.8466 24.9375 32.2841 26.0625 32.2841 27.1875V30H36.4091L35.6591 34.3125H32.0966V45C39.5966 43.875 45.0341 37.5 45.0341 30Z" fill="white"/>
</svg>
