<svg width="61" height="60" viewBox="0 0 61 60" fill="none" xmlns="http://www.w3.org/2000/svg">
<path d="M60.3674 0H0.367432V60H60.3674V0Z" fill="#F00073"/>
<path d="M30.3674 17.25C34.4924 17.25 35.0549 17.25 36.7424 17.25C38.2424 17.25 38.9924 17.625 39.5549 17.8125C40.3049 18.1875 40.8674 18.375 41.4299 18.9375C41.9924 19.5 42.3674 20.0625 42.5549 20.8125C42.7424 21.375 42.9299 22.125 43.1174 23.625C43.1174 25.3125 43.1174 25.6875 43.1174 30C43.1174 34.3125 43.1174 34.6875 43.1174 36.375C43.1174 37.875 42.7424 38.625 42.5549 39.1875C42.1799 39.9375 41.9924 40.5 41.4299 41.0625C40.8674 41.625 40.3049 42 39.5549 42.1875C38.9924 42.375 38.2424 42.5625 36.7424 42.75C35.0549 42.75 34.6799 42.75 30.3674 42.75C26.0549 42.75 25.6799 42.75 23.9924 42.75C22.4924 42.75 21.7424 42.375 21.1799 42.1875C20.4299 41.8125 19.8674 41.625 19.3049 41.0625C18.7424 40.5 18.3674 39.9375 18.1799 39.1875C17.9924 38.625 17.8049 37.875 17.6174 36.375C17.6174 34.6875 17.6174 34.3125 17.6174 30C17.6174 25.6875 17.6174 25.3125 17.6174 23.625C17.6174 22.125 17.9924 21.375 18.1799 20.8125C18.5549 20.0625 18.7424 19.5 19.3049 18.9375C19.8674 18.375 20.4299 18 21.1799 17.8125C21.7424 17.625 22.4924 17.4375 23.9924 17.25C25.6799 17.25 26.2424 17.25 30.3674 17.25ZM30.3674 14.4375C26.0549 14.4375 25.6799 14.4375 23.9924 14.4375C22.3049 14.4375 21.1799 14.8125 20.2424 15.1875C19.3049 15.5625 18.3674 16.125 17.4299 17.0625C16.4924 18 16.1174 18.75 15.5549 19.875C15.1799 20.8125 14.9924 21.9375 14.8049 23.625C14.8049 25.3125 14.8049 25.875 14.8049 30C14.8049 34.3125 14.8049 34.6875 14.8049 36.375C14.8049 38.0625 15.1799 39.1875 15.5549 40.125C15.9299 41.0625 16.4924 42 17.4299 42.9375C18.3674 43.875 19.1174 44.25 20.2424 44.8125C21.1799 45.1875 22.3049 45.375 23.9924 45.5625C25.6799 45.5625 26.2424 45.5625 30.3674 45.5625C34.4924 45.5625 35.0549 45.5625 36.7424 45.5625C38.4299 45.5625 39.5549 45.1875 40.4924 44.8125C41.4299 44.4375 42.3674 43.875 43.3049 42.9375C44.2424 42 44.6174 41.25 45.1799 40.125C45.5549 39.1875 45.7424 38.0625 45.9299 36.375C45.9299 34.6875 45.9299 34.125 45.9299 30C45.9299 25.875 45.9299 25.3125 45.9299 23.625C45.9299 21.9375 45.5549 20.8125 45.1799 19.875C44.8049 18.9375 44.2424 18 43.3049 17.0625C42.3674 16.125 41.6174 15.75 40.4924 15.1875C39.5549 14.8125 38.4299 14.625 36.7424 14.4375C35.0549 14.4375 34.6799 14.4375 30.3674 14.4375Z" fill="white"/>
<path d="M30.3674 21.9375C25.8674 21.9375 22.3049 25.5 22.3049 30C22.3049 34.5 25.8674 38.0625 30.3674 38.0625C34.8674 38.0625 38.4299 34.5 38.4299 30C38.4299 25.5 34.8674 21.9375 30.3674 21.9375ZM30.3674 35.25C27.5549 35.25 25.1174 33 25.1174 30C25.1174 27.1875 27.3674 24.75 30.3674 24.75C33.1799 24.75 35.6174 27 35.6174 30C35.6174 32.8125 33.1799 35.25 30.3674 35.25Z" fill="white"/>
<path d="M38.6174 23.625C39.653 23.625 40.4924 22.7855 40.4924 21.75C40.4924 20.7145 39.653 19.875 38.6174 19.875C37.5819 19.875 36.7424 20.7145 36.7424 21.75C36.7424 22.7855 37.5819 23.625 38.6174 23.625Z" fill="white"/>
</svg>
