<svg width="61" height="60" viewBox="0 0 61 60" fill="none" xmlns="http://www.w3.org/2000/svg">
<path d="M60.0341 0H0.0340576V60H60.0341V0Z" fill="#07BA39"/>
<path fill-rule="evenodd" clip-rule="evenodd" d="M22.6025 18.3223C25.8113 18.3223 29.0352 18.3223 32.2439 18.3223C35.9975 18.3223 38.4495 21.728 38.4495 25.1791C38.4495 27.5253 38.0862 28.5394 37.0419 29.7806C38.2527 30.9007 39.0549 32.3084 39.0549 34.6243C39.0549 38.9231 35.6948 41.678 32.592 41.678C29.353 41.678 26.1291 41.678 22.8901 41.678C21.6944 41.678 21.0133 41.1179 21.0133 39.8162C21.0133 33.1864 21.0133 26.5565 21.0133 19.9419C21.0133 19.0185 21.3766 18.3223 22.6025 18.3223ZM25.5086 32.2782H32.4255C33.5153 32.2782 34.4234 33.1712 34.4234 34.2762V35.2146C34.4234 36.3045 33.5304 37.2127 32.4255 37.2127H25.5086V32.2782ZM25.5086 22.7724H31.9563C33.0461 22.7724 33.9542 23.6655 33.9542 24.7704V25.7089C33.9542 26.7987 33.0612 27.7069 31.9563 27.7069H25.5086V22.7724Z" fill="white"/>
</svg>
