<svg width="61" height="60" viewBox="0 0 61 60" fill="none" xmlns="http://www.w3.org/2000/svg">
<path d="M60.7007 0H0.700745V60H60.7007V0Z" fill="#25D366"/>
<path fill-rule="evenodd" clip-rule="evenodd" d="M41.2008 19.3125C38.3883 16.5 34.6382 15 30.7007 15C22.4507 15 15.7007 21.75 15.7007 30C15.7007 32.625 16.4508 35.25 17.7633 37.5L15.7007 45L23.5758 42.9375C25.8258 44.0625 28.2632 44.8125 30.7007 44.8125C38.9507 44.8125 45.7007 38.0625 45.7007 29.8125C45.7007 25.875 44.0133 22.125 41.2008 19.3125ZM30.7007 42.375C28.4507 42.375 26.2008 41.8125 24.3258 40.6875L23.9507 40.5L19.2632 41.8125L20.5758 37.3125L20.2007 36.75C18.8882 34.6875 18.3257 32.4375 18.3257 30.1875C18.3257 23.4375 23.9507 17.8125 30.7007 17.8125C34.0757 17.8125 37.0758 19.125 39.5133 21.375C41.9508 23.8125 43.0758 26.8125 43.0758 30.1875C43.0758 36.75 37.6382 42.375 30.7007 42.375ZM37.4508 33C37.0758 32.8125 35.2008 31.875 34.8258 31.875C34.4508 31.6875 34.2632 31.6875 34.0757 32.0625C33.8882 32.4375 33.1383 33.1875 32.9508 33.5625C32.7633 33.75 32.5757 33.75 32.2007 33.75C31.8257 33.5625 30.7008 33.1875 29.2008 31.875C28.0758 30.9375 27.3258 29.625 27.1383 29.25C26.9508 28.875 27.1383 28.6875 27.3258 28.5C27.5133 28.3125 27.7007 28.125 27.8882 27.9375C28.0757 27.75 28.0758 27.5625 28.2633 27.375C28.4508 27.1875 28.2633 27 28.2633 26.8125C28.2633 26.625 27.5133 24.75 27.1383 24C26.9508 23.4375 26.5758 23.4375 26.3883 23.4375C26.2008 23.4375 26.0132 23.4375 25.6382 23.4375C25.4507 23.4375 25.0757 23.4375 24.7007 23.8125C24.3257 24.1875 23.3883 25.125 23.3883 27C23.3883 28.875 24.7007 30.5625 24.8882 30.9375C25.0757 31.125 27.5132 35.0625 31.2632 36.5625C34.4507 37.875 35.0133 37.5 35.7633 37.5C36.5133 37.5 38.0132 36.5625 38.2007 35.8125C38.5757 34.875 38.5758 34.125 38.3883 34.125C38.2008 33.1875 37.8258 33.1875 37.4508 33Z" fill="white"/>
</svg>
