<svg width="41" height="41" viewBox="0 0 41 41" fill="none" xmlns="http://www.w3.org/2000/svg">
<path d="M0.786133 20.0615C0.786133 9.01583 9.74044 0.0615234 20.7861 0.0615234C31.8318 0.0615234 40.7861 9.01583 40.7861 20.0615C40.7861 31.1072 31.8318 40.0615 20.7861 40.0615C9.74044 40.0615 0.786133 31.1072 0.786133 20.0615Z" fill="#D14F4F" fill-opacity="0.3"/>
<path d="M28.2661 20.4117C26.6961 16.3317 21.1061 16.1117 22.4561 10.1817C22.5561 9.74166 22.0861 9.40166 21.7061 9.63166C18.0761 11.7717 15.4661 16.0617 17.6561 21.6817C17.8361 22.1417 17.2961 22.5717 16.9061 22.2717C15.0961 20.9017 14.9061 18.9317 15.0661 17.5217C15.1261 17.0017 14.4461 16.7517 14.1561 17.1817C13.4761 18.2217 12.7861 19.9017 12.7861 22.4317C13.1661 28.0317 17.8961 29.7517 19.5961 29.9717C22.0261 30.2817 24.6561 29.8317 26.5461 28.1017C28.6261 26.1717 29.3861 23.0917 28.2661 20.4117ZM18.9861 25.4417C20.4261 25.0917 21.1661 24.0517 21.3661 23.1317C21.6961 21.7017 20.4061 20.3017 21.2761 18.0417C21.6061 19.9117 24.5461 21.0817 24.5461 23.1217C24.6261 25.6517 21.8861 27.8217 18.9861 25.4417Z" fill="#D14F4F"/>
</svg>
