<svg width="173" height="211" viewBox="0 0 173 211" fill="none" xmlns="http://www.w3.org/2000/svg">
<path d="M32.3899 9.70649C32.39 10.4154 32.6771 11.0575 33.1415 11.522C33.6059 11.9865 34.2477 12.2742 34.9568 12.2743L37.9515 12.2748L37.951 15.2696C37.9511 15.9785 38.2383 16.6206 38.7027 17.0851C39.167 17.5496 39.8088 17.8373 40.5179 17.8374C41.9357 17.8376 43.0853 16.6885 43.0853 15.271L43.0858 12.2757L46.081 12.2762C47.4988 12.2765 48.6484 11.1273 48.6484 9.70978C48.6484 8.29178 47.4994 7.14246 46.0817 7.14222L43.0869 7.1417L43.0874 4.14693C43.0874 2.72892 41.9385 1.57961 40.5207 1.57937C39.103 1.57912 37.9534 2.72828 37.9534 4.1458L37.9529 7.14106L34.9577 7.14054C33.5397 7.13957 32.3901 8.28873 32.3899 9.70649Z" fill="#D9D9D9"/>
<path d="M152.747 188.056C152.747 188.765 153.035 189.407 153.499 189.872C153.963 190.336 154.605 190.624 155.314 190.624L158.309 190.624L158.308 193.619C158.309 194.328 158.596 194.97 159.06 195.435C159.524 195.899 160.166 196.187 160.875 196.187C162.293 196.187 163.443 195.038 163.443 193.621L163.443 190.625L166.438 190.626C167.856 190.626 169.006 189.477 169.006 188.059C169.006 186.641 167.857 185.492 166.439 185.492L163.444 185.491L163.445 182.497C163.445 181.079 162.296 179.929 160.878 179.929C159.46 179.929 158.311 181.078 158.311 182.495L158.31 185.491L155.315 185.49C153.897 185.489 152.748 186.638 152.747 188.056Z" fill="#D9D9D9"/>
<path d="M63.3389 74.1006C61.9582 74.1006 60.8389 75.2199 60.8389 76.6006V120.142C60.8389 121.523 61.9582 122.642 63.3389 122.642H72.7139V155.767C72.7139 156.897 73.4711 157.886 74.5614 158.181C75.6517 158.475 76.8042 158.003 77.3733 157.027L105.082 109.527C105.533 108.754 105.536 107.798 105.09 107.022C104.644 106.246 103.817 105.767 102.922 105.767H91.134L105.158 77.7186C105.546 76.9436 105.504 76.0233 105.049 75.2863C104.593 74.5492 103.789 74.1006 102.922 74.1006H63.3389Z" stroke="#D9D9D9" stroke-width="5" stroke-linejoin="round"/>
<circle cx="83.1304" cy="112.058" r="73.5" stroke="#D9D9D9" stroke-width="5"/>
<path d="M12.2494 158.958L12.2494 158.959C12.2497 160.291 12.7923 161.503 13.6642 162.375C14.5355 163.247 15.7468 163.791 17.0808 163.791L17.0813 161.338L17.0809 163.791L17.3014 163.791L17.3013 164.012L17.3013 164.013C17.3016 165.345 17.8442 166.557 18.7161 167.429C19.5873 168.301 20.7987 168.845 22.1327 168.845C24.801 168.845 26.9651 166.683 26.9654 164.014C26.9654 164.014 26.9654 164.014 26.9654 164.013L26.9654 163.793L27.1864 163.793L27.1868 161.293L27.1864 163.793C29.8548 163.793 32.019 161.631 32.019 158.962C32.019 156.293 29.8567 154.13 27.1878 154.129L26.9673 154.129L26.9673 153.909L26.9673 153.908C26.9673 151.24 24.805 149.076 22.1361 149.076C19.4679 149.075 17.3037 151.238 17.3035 153.907C17.3035 153.907 17.3035 153.907 17.3035 153.907L17.3035 154.128L17.0838 154.128C17.0837 154.128 17.0836 154.128 17.0834 154.128C17.0831 154.128 17.0828 154.128 17.0825 154.128C14.4131 154.126 12.2499 156.29 12.2494 158.958Z" fill="#D9D9D9" stroke="white" stroke-width="5"/>
<line x1="150.289" y1="47.244" x2="161.13" y2="35.3053" stroke="#D9D9D9" stroke-width="5" stroke-linecap="round"/>
<path d="M30.3262 197.241L27.5603 208.103" stroke="#D9D9D9" stroke-width="5" stroke-linecap="round"/>
<path d="M135.78 35.1347L140.06 24.1818" stroke="#D9D9D9" stroke-width="5" stroke-linecap="round"/>
<path d="M158.901 62.5865L170.422 60.2295" stroke="#D9D9D9" stroke-width="5" stroke-linecap="round"/>
<path d="M13.8618 188.034L3.25325 200.774" stroke="#D9D9D9" stroke-width="5" stroke-linecap="round"/>
</svg>
