<svg width="158" height="157" viewBox="0 0 158 157" fill="none" xmlns="http://www.w3.org/2000/svg">
<path d="M115.758 0.866872C115.257 1.36821 115.006 2.02532 115.006 2.68214C115.006 3.33895 115.256 3.99616 115.757 4.49767L117.875 6.61565L115.757 8.73291C115.255 9.23425 115.004 9.89136 115.004 10.5482C115.004 11.205 115.255 11.8622 115.756 12.3637C116.758 13.3664 118.384 13.3667 119.386 12.3643L121.504 10.2467L123.622 12.3651C124.624 13.3677 126.25 13.368 127.252 12.3657C128.255 11.363 128.255 9.73792 127.253 8.73524L125.135 6.61725L127.253 4.49999C128.256 3.49731 128.256 1.87222 127.254 0.869535C126.252 -0.133146 124.626 -0.133426 123.624 0.868909L121.506 2.98651L119.388 0.868178C118.386 -0.135188 116.761 -0.135462 115.758 0.866872Z" fill="#D9D9D9"/>
<path d="M144.969 144.007C144.468 144.508 144.217 145.165 144.217 145.822C144.217 146.479 144.467 147.136 144.969 147.637L147.086 149.755L144.968 151.873C144.467 152.374 144.216 153.031 144.216 153.688C144.216 154.345 144.466 155.002 144.967 155.503C145.97 156.506 147.595 156.506 148.597 155.504L150.716 153.386L152.833 155.505C153.836 156.507 155.461 156.508 156.464 155.505C157.466 154.503 157.466 152.878 156.464 151.875L154.347 149.757L156.465 147.64C157.468 146.637 157.468 145.012 156.466 144.009C155.463 143.007 153.838 143.006 152.835 144.009L150.717 146.126L148.599 144.008C147.597 143.004 145.972 143.004 144.969 144.007Z" fill="#D9D9D9"/>
<path d="M1.23255 65.3591C0.731381 65.8604 0.480383 66.5175 0.48027 67.1743C0.480157 67.8311 0.730585 68.4883 1.23192 68.9899L3.34918 71.1078L1.23119 73.2251C0.730024 73.7264 0.479026 74.3835 0.478913 75.0404C0.478799 75.6972 0.729228 76.3544 1.23057 76.8559C2.2329 77.8586 3.85834 77.8589 4.86068 76.8565L6.97901 74.7389L9.09661 76.8573C10.0989 77.8599 11.7244 77.8602 12.7267 76.8579C13.7294 75.8552 13.7297 74.2301 12.7273 73.2274L10.6101 71.1094L12.7281 68.9922C13.7308 67.9895 13.731 66.3644 12.7287 65.3617C11.7264 64.359 10.1009 64.3588 9.09859 65.3611L6.98026 67.4787L4.86266 65.3604C3.86067 64.357 2.23523 64.3567 1.23255 65.3591Z" fill="#D9D9D9"/>
<path d="M135.317 102.762C138.174 97.8152 138.175 91.9082 135.319 86.9602L100.422 26.4931C97.567 21.5456 92.4515 18.5908 86.739 18.5898C81.0265 18.5888 75.9099 21.5419 73.0528 26.4884L38.135 86.9435C35.2779 91.8904 35.2769 97.7975 38.1323 102.745C40.9877 107.693 46.1028 110.648 51.8157 110.649L65.6448 110.651C67.3522 110.651 68.7366 109.267 68.7369 107.56C68.7372 105.853 67.3532 104.468 65.6458 104.468L51.8168 104.465C48.3393 104.465 45.2258 102.667 43.4875 99.6547C41.7493 96.6427 41.75 93.0474 43.4892 90.036L78.407 29.581C80.1462 26.57 83.2604 24.7725 86.7379 24.7731C90.2154 24.7737 93.3289 26.5723 95.0671 29.5838L129.964 90.0509C131.702 93.0629 131.702 96.6583 129.962 99.6696C128.223 102.681 125.109 104.478 121.632 104.478L79.8921 104.47C78.1847 104.47 76.8002 105.854 76.7999 107.561C76.7996 109.269 78.1836 110.653 79.891 110.654L121.63 110.661C127.343 110.662 132.459 107.709 135.317 102.762Z" fill="#D9D9D9"/>
<path d="M87.377 98.3838C93.2087 98.3848 97.9541 93.641 97.9551 87.8094C97.9561 81.9778 93.2123 77.2323 87.3807 77.2313C81.5491 77.2303 76.8036 81.9741 76.8026 87.8057C76.8016 93.6374 81.5454 98.3828 87.377 98.3838ZM87.3796 83.4146C89.8018 83.415 91.7723 85.3861 91.7719 87.8083C91.7715 90.2305 89.8003 92.201 87.3781 92.2006C84.9559 92.2001 82.9855 90.229 82.9859 87.8068C82.9863 85.3846 84.9574 83.4142 87.3796 83.4146Z" fill="#D9D9D9"/>
<path d="M85.96 73.0092L88.8039 73.0097C92.8552 73.0104 96.1518 69.7148 96.1525 65.6632L96.1552 49.9148C96.1559 45.8636 92.8604 42.5669 88.8092 42.5662L85.9653 42.5657C81.914 42.565 78.6174 45.8605 78.6167 49.9118L78.6139 65.6601C78.6128 69.7118 81.9083 73.0085 85.96 73.0092ZM84.7995 49.9129C84.7996 49.2711 85.322 48.7489 85.9638 48.749L88.8077 48.7495C89.4495 48.7496 89.9717 49.2719 89.9716 49.9138L89.9689 65.6621C89.9688 66.3043 89.4464 66.8265 88.8046 66.8264L85.9607 66.8259C85.3189 66.8258 84.7967 66.3034 84.7968 65.6612L84.7995 49.9129Z" fill="#D9D9D9"/>
<path d="M127.984 126.97C127.985 125.263 126.601 123.878 124.893 123.878L48.5489 123.865C46.8415 123.864 45.457 125.248 45.4567 126.956C45.4564 128.663 46.8404 130.048 48.5478 130.048L124.892 130.061C126.599 130.062 127.984 128.678 127.984 126.97Z" fill="#D9D9D9"/>
<path d="M48.5469 137.055C46.8395 137.055 45.4551 138.439 45.4548 140.146C45.4545 141.854 46.8385 143.238 48.5459 143.238L81.6922 143.244C83.3997 143.244 84.7841 141.861 84.7844 140.153C84.7847 138.446 83.4007 137.061 81.6933 137.061L48.5469 137.055Z" fill="#D9D9D9"/>
</svg>
