<svg width="19" height="17" viewBox="0 0 19 17" fill="none" xmlns="http://www.w3.org/2000/svg">
<path d="M9.48442 3.56368C11.7844 3.56368 13.6511 5.43035 13.6511 7.73035C13.6511 8.27201 13.5427 8.78035 13.3511 9.25535L15.7844 11.6887C17.0427 10.6387 18.0344 9.28035 18.6427 7.73035C17.2011 4.07201 13.6427 1.48035 9.47608 1.48035C8.30942 1.48035 7.19275 1.68868 6.15942 2.06368L7.95942 3.86368C8.43442 3.67201 8.94275 3.56368 9.48442 3.56368ZM1.15108 1.28868L3.05108 3.18868L3.43442 3.57201C2.05108 4.64701 0.967749 6.08035 0.317749 7.73035C1.75942 11.3887 5.31775 13.9803 9.48442 13.9803C10.7761 13.9803 12.0094 13.7303 13.1344 13.2803L13.4844 13.6303L15.9261 16.0637L16.9844 15.0053L2.20942 0.230347L1.15108 1.28868ZM5.75942 5.89701L7.05108 7.18868C7.00942 7.36368 6.98442 7.54701 6.98442 7.73035C6.98442 9.11368 8.10108 10.2303 9.48442 10.2303C9.66775 10.2303 9.85108 10.2053 10.0261 10.1637L11.3177 11.4553C10.7594 11.7303 10.1427 11.897 9.48442 11.897C7.18442 11.897 5.31775 10.0303 5.31775 7.73035C5.31775 7.07201 5.48442 6.45535 5.75942 5.89701ZM9.35108 5.24701L11.9761 7.87201L11.9927 7.73868C11.9927 6.35535 10.8761 5.23868 9.49275 5.23868L9.35108 5.24701Z" fill="black"/>
</svg>
