<svg width="19" height="14" viewBox="0 0 19 14" fill="none" xmlns="http://www.w3.org/2000/svg">
<path d="M9.48442 0.547729C5.31775 0.547729 1.75942 3.1394 0.317749 6.79773C1.75942 10.4561 5.31775 13.0477 9.48442 13.0477C13.6511 13.0477 17.2094 10.4561 18.6511 6.79773C17.2094 3.1394 13.6511 0.547729 9.48442 0.547729ZM9.48442 10.9644C7.18441 10.9644 5.31775 9.09773 5.31775 6.79773C5.31775 4.49773 7.18441 2.63106 9.48442 2.63106C11.7844 2.63106 13.6511 4.49773 13.6511 6.79773C13.6511 9.09773 11.7844 10.9644 9.48442 10.9644ZM9.48442 4.29773C8.10108 4.29773 6.98442 5.4144 6.98442 6.79773C6.98442 8.18106 8.10108 9.29773 9.48442 9.29773C10.8677 9.29773 11.9844 8.18106 11.9844 6.79773C11.9844 5.4144 10.8677 4.29773 9.48442 4.29773Z" fill="#004BDD"/>
</svg>
