<svg width="41" height="40" viewBox="0 0 41 40" fill="none" xmlns="http://www.w3.org/2000/svg">
<rect x="0.91394" width="40" height="40" rx="20" fill="#004BDD" fill-opacity="0.15"/>
<path d="M21.304 18.9C19.034 18.31 18.304 17.7 18.304 16.75C18.304 15.66 19.314 14.9 21.004 14.9C22.784 14.9 23.444 15.75 23.504 17H25.714C25.644 15.28 24.594 13.7 22.504 13.19V11H19.504V13.16C17.564 13.58 16.004 14.84 16.004 16.77C16.004 19.08 17.914 20.23 20.704 20.9C23.204 21.5 23.704 22.38 23.704 23.31C23.704 24 23.214 25.1 21.004 25.1C18.944 25.1 18.134 24.18 18.024 23H15.824C15.944 25.19 17.584 26.42 19.504 26.83V29H22.504V26.85C24.454 26.48 26.004 25.35 26.004 23.3C26.004 20.46 23.574 19.49 21.304 18.9Z" fill="#004BDD"/>
</svg>
