<svg width="41" height="40" viewBox="0 0 41 40" fill="none" xmlns="http://www.w3.org/2000/svg">
<rect x="0.91394" width="40" height="40" rx="20" fill="#004BDD" fill-opacity="0.15"/>
<path d="M20.9139 13.9C22.0739 13.9 23.0139 14.84 23.0139 16C23.0139 17.16 22.0739 18.1 20.9139 18.1C19.7539 18.1 18.8139 17.16 18.8139 16C18.8139 14.84 19.7539 13.9 20.9139 13.9ZM20.9139 22.9C23.8839 22.9 27.0139 24.36 27.0139 25V26.1H14.8139V25C14.8139 24.36 17.9439 22.9 20.9139 22.9ZM20.9139 12C18.7039 12 16.9139 13.79 16.9139 16C16.9139 18.21 18.7039 20 20.9139 20C23.1239 20 24.9139 18.21 24.9139 16C24.9139 13.79 23.1239 12 20.9139 12ZM20.9139 21C18.2439 21 12.9139 22.34 12.9139 25V28H28.9139V25C28.9139 22.34 23.5839 21 20.9139 21Z" fill="#004BDD"/>
</svg>
