<svg width="21" height="20" viewBox="0 0 21 20" fill="none" xmlns="http://www.w3.org/2000/svg">
<path d="M17.151 6.66658H14.651V3.33325H2.98435C2.06769 3.33325 1.31769 4.08325 1.31769 4.99992V14.1666H2.98435C2.98435 15.5499 4.10102 16.6666 5.48435 16.6666C6.86769 16.6666 7.98435 15.5499 7.98435 14.1666H12.9844C12.9844 15.5499 14.101 16.6666 15.4844 16.6666C16.8677 16.6666 17.9844 15.5499 17.9844 14.1666H19.651V9.99992L17.151 6.66658ZM5.48435 15.4166C4.79269 15.4166 4.23435 14.8583 4.23435 14.1666C4.23435 13.4749 4.79269 12.9166 5.48435 12.9166C6.17602 12.9166 6.73435 13.4749 6.73435 14.1666C6.73435 14.8583 6.17602 15.4166 5.48435 15.4166ZM16.7344 7.91658L18.3677 9.99992H14.651V7.91658H16.7344ZM15.4844 15.4166C14.7927 15.4166 14.2344 14.8583 14.2344 14.1666C14.2344 13.4749 14.7927 12.9166 15.4844 12.9166C16.176 12.9166 16.7344 13.4749 16.7344 14.1666C16.7344 14.8583 16.176 15.4166 15.4844 15.4166Z" fill="#D9D9D9"/>
</svg>
