<svg width="96" height="96" viewBox="0 0 96 96" fill="none" xmlns="http://www.w3.org/2000/svg">
<path d="M74.5788 41.8323C74.1981 40.6576 73.2017 39.8176 71.9795 39.6403L57.4913 37.5349L51.0121 24.4076C50.4666 23.2995 49.3602 22.6113 48.1248 22.6113C46.8897 22.6113 45.7831 23.2995 45.2377 24.4065L38.7581 37.5349L24.2698 39.6403C23.0484 39.8176 22.0524 40.6571 21.6703 41.8319C21.2896 43.005 21.6015 44.2693 22.4852 45.1321L32.9696 55.3511L30.4945 69.7805C30.2854 70.9971 30.7758 72.2039 31.7748 72.93C32.3393 73.3404 32.9998 73.549 33.6646 73.5488C34.1764 73.5488 34.6907 73.4252 35.1659 73.1755L48.1248 66.3625L61.0829 73.1756C61.5429 73.4172 62.0609 73.5451 62.5806 73.5451C63.2657 73.5451 63.9201 73.3324 64.4739 72.93C65.4713 72.2047 65.9622 70.9984 65.7542 69.7812L64.7753 64.0725C64.635 63.2559 63.8588 62.7075 63.0432 62.8475C62.2266 62.9876 61.6783 63.7632 61.8184 64.5796L62.7973 70.2874C62.8112 70.3698 62.7767 70.4548 62.7098 70.5034C62.6103 70.5759 62.5381 70.5514 62.4782 70.5199L48.8219 63.3404C48.3852 63.1108 47.8634 63.1106 47.4259 63.3404L33.7683 70.5203C33.6954 70.5587 33.6047 70.552 33.5377 70.5034C33.4696 70.4539 33.436 70.3718 33.4503 70.2883L36.0587 55.0811C36.1424 54.5942 35.9812 54.0979 35.6275 53.7533L24.5791 42.9846C24.5194 42.9261 24.4971 42.8374 24.5225 42.7591C24.5483 42.6799 24.6181 42.6209 24.7003 42.609L39.9691 40.3902C40.4579 40.3192 40.8802 40.0125 41.0987 39.5696L47.9278 25.7332C48.002 25.5827 48.246 25.5814 48.321 25.7339L55.1498 39.5696C55.3682 40.0123 55.7907 40.3192 56.2793 40.3902L71.5483 42.609C71.6303 42.6211 71.6997 42.6793 71.7257 42.7597C71.7513 42.8382 71.7292 42.9263 71.6698 42.984L60.6212 53.7533C60.2678 54.0979 60.1063 54.5946 60.19 55.0811L61.0142 59.8858C61.1539 60.7023 61.9299 61.2507 62.7459 61.1106C63.5625 60.9706 64.111 60.195 63.9707 59.3786L63.2799 55.3511L73.7643 45.1315C74.6486 44.2691 74.9605 43.0044 74.5788 41.8323Z" fill="#D9D9D9"/>
<path d="M9.24959 46.5791H2.12496C1.29649 46.5791 0.625 47.2506 0.625 48.0791C0.625 48.9075 1.29649 49.579 2.12496 49.579H9.24959C10.0782 49.579 10.7496 48.9073 10.7496 48.0791C10.7496 47.2506 10.0781 46.5791 9.24959 46.5791Z" fill="#D9D9D9"/>
<path d="M94.1246 46.5791H87C86.1713 46.5791 85.5 47.2508 85.5 48.0791C85.5 48.9075 86.1715 49.579 87 49.579H94.1246C94.9532 49.579 95.6245 48.9073 95.6245 48.0791C95.6245 47.2506 94.9532 46.5791 94.1246 46.5791Z" fill="#D9D9D9"/>
<path d="M19.5759 74.5077L14.5381 79.5453C13.9522 80.1309 13.9522 81.0807 14.5379 81.6665C14.8309 81.9594 15.2148 82.1058 15.5987 82.1058C15.9824 82.1058 16.3665 81.9595 16.6591 81.6667L21.6969 76.6289C22.2829 76.0433 22.2829 75.0935 21.6971 74.5077C21.1113 73.9219 20.1615 73.9219 19.5759 74.5077Z" fill="#D9D9D9"/>
<path d="M79.5907 14.4913L74.5528 19.5289C73.9668 20.1147 73.9668 21.0645 74.5526 21.6502C74.8456 21.9432 75.2295 22.0896 75.6134 22.0896C75.9972 22.0896 76.3811 21.9432 76.6738 21.6501L81.7117 16.6125C82.2977 16.0269 82.2977 15.0771 81.7119 14.4913C81.1261 13.9053 80.1763 13.9052 79.5907 14.4913Z" fill="#D9D9D9"/>
<path d="M48.125 85.4551C47.2963 85.4551 46.625 86.1268 46.625 86.955V94.0795C46.625 94.908 47.2965 95.5794 48.125 95.5794C48.9536 95.5794 49.6249 94.9078 49.6249 94.0795V86.955C49.6249 86.1266 48.9536 85.4551 48.125 85.4551Z" fill="#D9D9D9"/>
<path d="M48.125 10.7037C48.9536 10.7037 49.6249 10.032 49.6249 9.20369V2.07906C49.6249 1.2506 48.9534 0.579102 48.125 0.579102C47.2963 0.579102 46.625 1.25078 46.625 2.07906V9.20369C46.625 10.0322 47.2963 10.7037 48.125 10.7037Z" fill="#D9D9D9"/>
<path d="M76.6738 74.5067C76.0884 73.9209 75.1385 73.9209 74.5526 74.5067C73.9668 75.0923 73.9668 76.0421 74.5528 76.6279L79.5907 81.6657C79.8835 81.9587 80.2676 82.105 80.6513 82.105C81.035 82.105 81.4191 81.9587 81.7119 81.6655C82.2977 81.0799 82.2977 80.1301 81.7117 79.5443L76.6738 74.5067Z" fill="#D9D9D9"/>
<path d="M19.5757 21.651C19.8687 21.944 20.2526 22.0904 20.6365 22.0904C21.0202 22.0904 21.4043 21.944 21.6971 21.6514C22.2829 21.0656 22.2829 20.1158 21.6971 19.53L16.6593 14.4921C16.0737 13.9063 15.1241 13.9063 14.538 14.4921C13.9522 15.0776 13.9522 16.0275 14.538 16.6132L19.5757 21.651Z" fill="#D9D9D9"/>
</svg>
