<svg width="96" height="96" viewBox="0 0 96 96" fill="none" xmlns="http://www.w3.org/2000/svg">
<path fill-rule="evenodd" clip-rule="evenodd" d="M58.5972 62.9893C59.1831 63.5752 59.1831 64.5254 58.5972 65.1113C58.1299 65.5791 57.4312 65.6729 56.8701 65.3945C56.728 65.3242 56.5947 65.2295 56.4761 65.1113L48.001 56.6357L39.5254 65.1113C38.9399 65.6963 37.9902 65.6973 37.4043 65.1113C36.8184 64.5254 36.8184 63.5752 37.4043 62.9902L45.8799 54.5146L37.4043 46.0391C36.8188 45.4531 36.8184 44.5039 37.4043 43.918C37.9902 43.332 38.9399 43.332 39.5259 43.918L48.001 52.3936L56.4761 43.918C57.0615 43.332 58.0112 43.332 58.5972 43.918C59.1831 44.5039 59.1831 45.4531 58.5972 46.0391L50.1221 54.5146L58.5972 62.9893Z" fill="#D9D9D9"/>
<circle cx="48" cy="54.5146" r="29.5" stroke="#D9D9D9" stroke-width="2"/>
<circle cx="32.9673" cy="27.1108" r="6.84619" fill="white" stroke="#D9D9D9" stroke-width="2"/>
<circle cx="75.97" cy="62.0452" r="3.78052" fill="white" stroke="#D9D9D9" stroke-width="2"/>
<circle cx="79.5938" cy="81.3896" r="2.625" fill="white" stroke="#D9D9D9" stroke-width="2"/>
<circle cx="13.875" cy="15.6396" r="2.625" fill="white" stroke="#D9D9D9" stroke-width="2"/>
<circle cx="12.2188" cy="31.332" r="2.625" fill="white" stroke="#D9D9D9" stroke-width="2"/>
</svg>
