<svg width="85" height="102" viewBox="0 0 85 102" fill="none" xmlns="http://www.w3.org/2000/svg">
<path d="M84.4424 57.304C84.3514 56.2363 83.6644 55.3596 82.6492 55.0158L74.4127 52.2266L82.4312 43.0271C82.9635 42.4165 83.1862 41.6089 83.0424 40.8118C82.8984 40.0147 82.4073 39.3362 81.6949 38.9502L71.35 33.3453C70.674 32.9792 69.8298 33.2301 69.4633 33.9059C69.0973 34.5816 69.3483 35.4263 70.0239 35.7923L80.2267 41.3202L71.6816 51.1237L44.6914 36.5L49.6996 30.7545C50.2759 30.966 50.8982 31.0814 51.5469 31.0814C53.561 31.0814 55.3191 29.9676 56.24 28.3242L63.9735 32.5143C64.1843 32.6284 64.4112 32.6825 64.6352 32.6825C65.1295 32.6825 65.608 32.4187 65.8602 31.9535C66.2262 31.2778 65.9752 30.4331 65.2994 30.067L56.9193 25.5268C56.8248 22.6443 54.4522 20.3281 51.5471 20.3281C48.5824 20.3281 46.1704 22.7401 46.1704 25.7048C46.1704 27.0101 46.6384 28.2078 47.4147 29.1402L42.5006 34.778L33.7945 24.79C32.9725 23.8469 31.6304 23.6044 30.5299 24.2004L27.1268 26.0442C26.728 22.8907 24.0307 20.4434 20.7708 20.4434C17.2372 20.4434 14.3623 23.3183 14.3623 26.852C14.3623 28.8059 15.2423 30.5573 16.6256 31.7336L3.30616 38.9502C2.59402 39.3362 2.10305 40.0145 1.95888 40.8118C1.81508 41.6089 2.03774 42.4165 2.57008 43.0269L10.5884 52.2264L2.35206 55.0154C1.33692 55.3592 0.649834 56.236 0.558915 57.3036C0.467996 58.3713 0.996811 59.3517 1.93903 59.8622L11.6112 65.1024V70.3551C11.6112 71.1237 12.234 71.7468 13.0028 71.7468C13.7715 71.7468 14.3944 71.1237 14.3944 70.3551V66.6104L27.9261 73.9418C28.5034 74.2546 29.1474 74.4137 29.7939 74.4137C30.2165 74.4137 30.6405 74.3456 31.0472 74.2079L41.1092 70.801V98.489L14.9874 84.3357C14.6217 84.1375 14.3946 83.7561 14.3946 83.3401V77.2251C14.3946 76.4566 13.7717 75.8335 13.003 75.8335C12.2342 75.8335 11.6113 76.4566 11.6113 77.2251V83.3401C11.6113 84.7784 12.3968 86.0975 13.6615 86.7827L40.6355 101.398C41.2196 101.714 41.8603 101.873 42.501 101.873C43.1417 101.873 43.7824 101.714 44.3665 101.398L71.3405 86.7827C72.6051 86.0975 73.3907 84.7784 73.3907 83.3401V65.1022L83.0626 59.862C84.0043 59.3521 84.5333 58.3718 84.4424 57.304ZM42.5006 67.2778C29.4523 60.2081 26.6568 58.6936 15.9241 52.8785L42.501 38.4787L69.0778 52.8786C52.3576 61.9379 62.7726 56.2943 42.5006 67.2778ZM51.5469 23.1117C52.9769 23.1117 54.1405 24.2751 54.1405 25.7052C54.1405 27.1352 52.9769 28.2988 51.5469 28.2988C50.1169 28.2988 48.9535 27.1352 48.9535 25.7052C48.9535 24.2751 50.1169 23.1117 51.5469 23.1117ZM20.7708 23.227C22.7697 23.227 24.3962 24.8533 24.3962 26.8524C24.3962 28.8513 22.7697 30.4778 20.7708 30.4778C18.7719 30.4778 17.1455 28.8515 17.1455 26.8524C17.1455 24.8533 18.7719 23.227 20.7708 23.227ZM19.7889 33.1858C20.1091 33.2353 20.437 33.2611 20.7708 33.2611C23.3644 33.2611 25.6012 31.7116 26.6089 29.4905L31.7646 26.6973L40.3095 36.5004L13.3193 51.1241L4.77422 41.3206L19.7889 33.1858ZM30.1544 71.5722C29.8568 71.6731 29.5276 71.6447 29.2519 71.4952L13.6719 63.054C13.6678 63.0517 13.6635 63.0495 13.6594 63.0473L3.52585 57.5569L12.8734 54.3916L39.034 68.5657L30.1544 71.5722ZM70.6069 83.3406C70.6069 83.7566 70.3796 84.1381 70.0141 84.3363L43.8923 98.4896V70.8016L53.9542 74.2084C54.3609 74.3461 54.7849 74.4142 55.2078 74.4142C55.8539 74.4142 56.4981 74.255 57.0753 73.9424L70.6071 66.6109V83.3406H70.6069ZM55.7492 71.4952C55.4735 71.6447 55.1443 71.6731 54.8467 71.5722L45.9673 68.5657L72.1278 54.3916L81.4754 57.5569L55.7492 71.4952ZM81.7565 57.6521C81.7565 57.6521 81.7562 57.6519 81.7558 57.6519L81.7565 57.6521Z" fill="#D9D9D9"/>
<path d="M52.9075 85.6713L49.7152 87.401C49.0394 87.7671 48.7886 88.6117 49.1546 89.2874C49.4066 89.7524 49.8853 90.0165 50.3796 90.0165C50.6034 90.0165 50.8307 89.9623 51.0413 89.8482L54.2337 88.1185C54.9094 87.7524 55.1603 86.9078 54.7942 86.232C54.4281 85.5563 53.5839 85.305 52.9075 85.6713Z" fill="#D9D9D9"/>
<path d="M59.6313 18.9978C62.9745 18.9978 65.6943 16.2781 65.6943 12.935C65.6941 9.59183 62.9743 6.87207 59.6313 6.87207C56.2883 6.87207 53.5684 9.59183 53.5684 12.935C53.5684 16.2781 56.2881 18.9978 59.6313 18.9978ZM59.6313 9.65529C61.4397 9.65529 62.9111 11.1265 62.9111 12.935C62.9111 14.7434 61.4397 16.2146 59.6313 16.2146C57.823 16.2146 56.3516 14.7434 56.3516 12.935C56.3516 11.1265 57.823 9.65529 59.6313 9.65529Z" fill="#D9D9D9"/>
<path d="M78.4209 25.0277C78.6677 25.2744 78.9913 25.3979 79.3146 25.3979C79.638 25.3979 79.9615 25.2746 80.2083 25.0277L81.2508 23.9852L82.2933 25.0277C82.5402 25.2744 82.8637 25.3979 83.1871 25.3979C83.5104 25.3979 83.8339 25.2746 84.0808 25.0277C84.5743 24.5342 84.5743 23.734 84.0808 23.2406L83.0381 22.198L84.0808 21.1553C84.5743 20.6618 84.5743 19.8616 84.0808 19.3682C83.5871 18.8747 82.787 18.8747 82.2935 19.3682L81.251 20.4107L80.2085 19.3682C79.7148 18.8747 78.9148 18.8747 78.4212 19.3682C77.9277 19.8617 77.9277 20.6619 78.4212 21.1553L79.4639 22.198L78.4212 23.2406C77.9274 23.734 77.9274 24.5342 78.4209 25.0277Z" fill="#D9D9D9"/>
<path d="M10.9697 6.50138C11.2166 6.74806 11.5401 6.87157 11.8634 6.87157C12.1868 6.87157 12.5103 6.74823 12.7572 6.50138L13.7997 5.45887L14.8422 6.50138C15.089 6.74806 15.4125 6.87157 15.7359 6.87157C16.0592 6.87157 16.3828 6.74823 16.6296 6.50138C17.1231 6.00785 17.1231 5.20764 16.6296 4.71428L15.5869 3.67161L16.6296 2.62893C17.1231 2.1354 17.1231 1.3352 16.6296 0.84183C16.1359 0.348296 15.3359 0.348296 14.8423 0.84183L13.7998 1.88433L12.7573 0.84183C12.2636 0.348296 11.4636 0.348296 10.9701 0.84183C10.4765 1.33536 10.4765 2.13557 10.9701 2.62893L12.0127 3.67161L10.9701 4.71428C10.4762 5.20764 10.4762 6.00785 10.9697 6.50138Z" fill="#D9D9D9"/>
</svg>
