<svg width="91" height="96" viewBox="0 0 91 96" fill="none" xmlns="http://www.w3.org/2000/svg">
<g clip-path="url(#clip0_330_4093)">
<path d="M45.7011 3.53809C36.345 3.53809 28.7517 11.2383 28.7517 20.7261C28.7517 30.2139 36.345 37.9142 45.7011 37.9142C55.0571 37.9142 62.6504 30.2139 62.6504 20.7261C62.6504 11.2383 55.0571 3.53809 45.7011 3.53809ZM42.3112 29.3202L33.8365 20.7261L36.2264 18.3026L42.3112 24.4559L55.1757 11.4102L57.5656 13.8509L42.3112 29.3202Z" fill="#D9D9D9"/>
</g>
<path d="M90.3793 48.4761C90.2827 47.3424 89.5532 46.4115 88.4753 46.0464L79.7295 43.0848L88.2438 33.3165C88.809 32.6681 89.0454 31.8106 88.8927 30.9642C88.7399 30.1178 88.2184 29.3973 87.462 28.9875L76.4774 23.0361C75.7597 22.6474 74.8632 22.9137 74.4741 23.6313C74.0854 24.3488 74.352 25.2457 75.0693 25.6344L85.9029 31.5041L76.8295 41.9137L48.1705 26.3858L53.4883 20.2851C54.1003 20.5097 54.7611 20.6322 55.4499 20.6322C57.5886 20.6322 59.4553 19.4495 60.4332 17.7045L68.6448 22.1536C68.8686 22.2748 69.1096 22.3323 69.3474 22.3323C69.8723 22.3323 70.3804 22.0522 70.6481 21.5582C71.0369 20.8407 70.7703 19.9438 70.0527 19.5551L61.1545 14.7342C60.4332 15.4272 60.352 17.9696 57.2672 17.9696C54.1192 17.9696 56.8375 14.8216 56.8375 17.9696C56.8375 19.3556 43.4444 27.7939 44.2687 28.7839L41.7621 29.6791L32.7742 21.2283L38.0735 15.6425L36.5998 13.9518C35.727 12.9503 34.302 12.6928 33.1334 13.3257C-40.3785 53.1538 39.0115 10.1408 4.2264 28.9875C3.47023 29.3973 2.94892 30.1176 2.79583 30.9642C2.64314 31.8106 2.87956 32.6681 3.44482 33.3163L11.9589 43.0846L3.21332 46.0461C2.13541 46.4111 1.40584 47.3421 1.3093 48.4757C1.21276 49.6094 1.77427 50.6504 2.77475 51.1925L13.0449 56.7567V62.3342C13.0449 63.1503 13.7063 63.8119 14.5226 63.8119C15.3388 63.8119 16.0002 63.1503 16.0002 62.3342V58.3579L30.3686 66.1426C30.9816 66.4748 31.6654 66.6437 32.3518 66.6437C32.8007 66.6437 33.2509 66.5714 33.6827 66.4252L44.3668 62.8077V92.2076L16.6299 77.1792C16.2416 76.9688 16.0004 76.5637 16.0004 76.122V69.6289C16.0004 68.8129 15.339 68.1513 14.5228 68.1513C13.7065 68.1513 13.0451 68.8129 13.0451 69.6289V76.122C13.0451 77.6493 13.8791 79.0499 15.222 79.7775L43.8638 95.2963C44.4841 95.6325 45.1644 95.8003 45.8447 95.8003C46.525 95.8003 47.2053 95.6323 47.8255 95.2963L76.4674 79.7775C77.8101 79.0499 78.6443 77.6493 78.6443 76.122V56.7565L88.9142 51.1923C89.9141 50.6508 90.4758 49.61 90.3793 48.4761ZM45.8443 59.0666C31.9891 51.5598 29.0208 49.9517 17.6245 43.777L40.4301 31.4206L45.8447 28.4869L74.0647 43.7772C56.3107 53.3965 67.3697 47.404 45.8443 59.0666ZM34.4444 15.977L35.6102 17.3144L31.7 21.2283L38.6026 29.0493L14.8587 41.9141L5.78524 31.5045C15.5971 26.1885 24.8309 21.1855 34.4444 15.977ZM32.7347 63.6265C32.4186 63.7337 32.0691 63.7035 31.7763 63.5447L15.233 54.5816C15.2287 54.5793 15.2242 54.5769 15.2198 54.5745L4.45968 48.7447L14.3852 45.3837L42.1633 60.4341L32.7347 63.6265ZM75.6883 76.1226C75.6883 76.5643 75.447 76.9694 75.0589 77.1798L47.3219 92.2082V62.8083L58.006 66.4258C58.4379 66.572 58.8881 66.6443 59.3371 66.6443C60.0232 66.6443 60.7072 66.4752 61.3202 66.1432L75.6886 58.3585L75.6883 76.1226ZM59.912 63.5447C59.6193 63.7035 59.2697 63.7337 58.9537 63.6265L49.5252 60.4341L77.3033 45.3837L87.2289 48.7447L59.912 63.5447Z" fill="#D9D9D9"/>
<path d="M56.8951 78.5977L53.5054 80.4343C52.7878 80.8231 52.5215 81.7199 52.9102 82.4375C53.1777 82.9312 53.686 83.2115 54.2109 83.2115C54.4485 83.2115 54.6899 83.154 54.9135 83.0328L58.3032 81.1962C59.0208 80.8075 59.2871 79.9107 58.8984 79.1931C58.5097 78.4756 57.6133 78.2088 56.8951 78.5977Z" fill="#D9D9D9"/>
<defs>
<clipPath id="clip0_330_4093">
<rect width="40.6784" height="41.2513" fill="white" transform="translate(25.3618 0.100586)"/>
</clipPath>
</defs>
</svg>
