<svg width="17" height="17" viewBox="0 0 17 17" fill="none" xmlns="http://www.w3.org/2000/svg">
<path d="M8.49984 0.231445C3.89984 0.231445 0.166504 3.96478 0.166504 8.56478C0.166504 13.1648 3.89984 16.8981 8.49984 16.8981C13.0998 16.8981 16.8332 13.1648 16.8332 8.56478C16.8332 3.96478 13.0998 0.231445 8.49984 0.231445ZM9.67484 13.6398V15.2314H7.44984V13.6231C6.02484 13.3231 4.8165 12.4064 4.72484 10.7898H6.35817C6.4415 11.6648 7.0415 12.3481 8.5665 12.3481C10.1998 12.3481 10.5665 11.5314 10.5665 11.0231C10.5665 10.3314 10.1998 9.68145 8.34151 9.23978C6.27484 8.73978 4.85817 7.88978 4.85817 6.18145C4.85817 4.74811 6.0165 3.81478 7.44984 3.50645V1.89811H9.67484V3.52311C11.2248 3.89811 11.9998 5.07311 12.0498 6.34811H10.4165C10.3748 5.42311 9.88317 4.78978 8.5665 4.78978C7.3165 4.78978 6.5665 5.35645 6.5665 6.15645C6.5665 6.85645 7.10817 7.31478 8.7915 7.74811C10.4748 8.18145 12.2748 8.90645 12.2748 11.0064C12.2665 12.5314 11.1248 13.3648 9.67484 13.6398Z" fill="#B2B2B2"/>
</svg>
