<svg width="19" height="15" viewBox="0 0 19 15" fill="none" xmlns="http://www.w3.org/2000/svg">
<path d="M16.1668 4.23079H13.6668V0.897461H2.00016C1.0835 0.897461 0.333496 1.64746 0.333496 2.56413V11.7308H2.00016C2.00016 13.1141 3.11683 14.2308 4.50016 14.2308C5.8835 14.2308 7.00016 13.1141 7.00016 11.7308H12.0002C12.0002 13.1141 13.1168 14.2308 14.5002 14.2308C15.8835 14.2308 17.0002 13.1141 17.0002 11.7308H18.6668V7.56413L16.1668 4.23079ZM4.50016 12.9808C3.8085 12.9808 3.25016 12.4225 3.25016 11.7308C3.25016 11.0391 3.8085 10.4808 4.50016 10.4808C5.19183 10.4808 5.75016 11.0391 5.75016 11.7308C5.75016 12.4225 5.19183 12.9808 4.50016 12.9808ZM15.7502 5.48079L17.3835 7.56413H13.6668V5.48079H15.7502ZM14.5002 12.9808C13.8085 12.9808 13.2502 12.4225 13.2502 11.7308C13.2502 11.0391 13.8085 10.4808 14.5002 10.4808C15.1918 10.4808 15.7502 11.0391 15.7502 11.7308C15.7502 12.4225 15.1918 12.9808 14.5002 12.9808Z" fill="#B2B2B2"/>
</svg>
