<svg width="21" height="21" viewBox="0 0 21 21" fill="none" xmlns="http://www.w3.org/2000/svg">
<path d="M9.75547 9.67927L0.771094 5.89638C0.642383 5.84216 0.5 5.93669 0.5 6.07638V16.1896C0.5 16.4452 0.655586 16.675 0.892891 16.7699L9.60715 20.2556C9.73543 20.3069 9.875 20.2124 9.875 20.0743V9.85927C9.875 9.78067 9.82789 9.70978 9.75547 9.67927Z" fill="#B2B2B2"/>
<path d="M10.5759 8.60437L19.2601 4.94788C19.4161 4.88218 19.4203 4.66249 19.2668 4.59089L10.7644 0.623076C10.5968 0.544912 10.4033 0.544912 10.2358 0.623076L1.73333 4.59089C1.57986 4.66249 1.58404 4.88218 1.74013 4.94788L10.4243 8.60437C10.4727 8.62479 10.5274 8.62479 10.5759 8.60437Z" fill="#B2B2B2"/>
<path d="M11.125 9.85927V20.0743C11.125 20.2124 11.2646 20.3069 11.3929 20.2556L20.1071 16.7699C20.3444 16.675 20.5 16.4452 20.5 16.1896V6.07638C20.5 5.93669 20.3576 5.84216 20.2289 5.89638L11.2445 9.67927C11.1721 9.70978 11.125 9.78067 11.125 9.85927Z" fill="#B2B2B2"/>
</svg>
