<svg width="17" height="18" viewBox="0 0 17 18" fill="none" xmlns="http://www.w3.org/2000/svg">
<path d="M2.48957 8.58327V11.9166C2.48957 12.6083 3.04791 13.1666 3.73957 13.1666C4.43124 13.1666 4.98957 12.6083 4.98957 11.9166V8.58327C4.98957 7.8916 4.43124 7.33327 3.73957 7.33327C3.04791 7.33327 2.48957 7.8916 2.48957 8.58327ZM7.48957 8.58327V11.9166C7.48957 12.6083 8.04791 13.1666 8.73957 13.1666C9.43124 13.1666 9.98957 12.6083 9.98957 11.9166V8.58327C9.98957 7.8916 9.43124 7.33327 8.73957 7.33327C8.04791 7.33327 7.48957 7.8916 7.48957 8.58327ZM2.07291 17.3333H15.4062C16.0979 17.3333 16.6562 16.7749 16.6562 16.0833C16.6562 15.3916 16.0979 14.8333 15.4062 14.8333H2.07291C1.38124 14.8333 0.822906 15.3916 0.822906 16.0833C0.822906 16.7749 1.38124 17.3333 2.07291 17.3333ZM12.4896 8.58327V11.9166C12.4896 12.6083 13.0479 13.1666 13.7396 13.1666C14.4312 13.1666 14.9896 12.6083 14.9896 11.9166V8.58327C14.9896 7.8916 14.4312 7.33327 13.7396 7.33327C13.0479 7.33327 12.4896 7.8916 12.4896 8.58327ZM7.96457 0.241602L1.38124 3.70827C1.03957 3.88327 0.822906 4.2416 0.822906 4.62494C0.822906 5.19993 1.28957 5.6666 1.86457 5.6666H15.6229C16.1896 5.6666 16.6562 5.19993 16.6562 4.62494C16.6562 4.2416 16.4396 3.88327 16.0979 3.70827L9.51457 0.241602C9.03124 -0.0167318 8.44791 -0.0167318 7.96457 0.241602Z" fill="#B2B2B2"/>
</svg>
