<svg width="15" height="21" viewBox="0 0 15 21" fill="none" xmlns="http://www.w3.org/2000/svg">
<path d="M7.40299 20.355C11.2461 20.355 14.3727 17.2284 14.3727 13.3853C14.3727 11.581 13.6834 9.93462 12.5545 8.69565V5.5065C12.5545 2.66595 10.2435 0.35498 7.40299 0.35498C4.56244 0.35498 2.25153 2.66595 2.25153 5.5065V8.69553C1.12256 9.93462 0.433289 11.581 0.433289 13.3853C0.433289 17.2284 3.5599 20.355 7.40299 20.355ZM8.31208 13.6875V14.9004C8.31208 15.4025 7.90505 15.8095 7.40299 15.8095C6.90093 15.8095 6.4939 15.4025 6.4939 14.9004V13.6875C6.12614 13.4108 5.88783 12.9709 5.88783 12.4762C5.88783 11.6407 6.56753 10.961 7.40299 10.961C8.23844 10.961 8.91814 11.6407 8.91814 12.4762C8.91814 12.9709 8.67983 13.4108 8.31208 13.6875ZM4.06971 5.5065C4.06971 3.6685 5.56505 2.17316 7.40299 2.17316C9.24099 2.17316 10.7363 3.6685 10.7363 5.5065V7.26583C9.74553 6.72395 8.60965 6.41559 7.40299 6.41559C6.19638 6.41559 5.0605 6.72395 4.06971 7.26577V5.5065Z" fill="#B2B2B2"/>
</svg>
