<svg width="18" height="18" viewBox="0 0 18 18" fill="none" xmlns="http://www.w3.org/2000/svg">
<path d="M9.15624 0.666504C4.55624 0.666504 0.822906 4.39984 0.822906 8.99984C0.822906 13.5998 4.55624 17.3332 9.15624 17.3332C13.7562 17.3332 17.4896 13.5998 17.4896 8.99984C17.4896 4.39984 13.7562 0.666504 9.15624 0.666504ZM9.98957 14.8332H8.32291V13.1665H9.98957V14.8332ZM11.7146 8.37484L10.9646 9.1415C10.5479 9.5665 10.2479 9.94984 10.0979 10.5498C10.0312 10.8165 9.98957 11.1165 9.98957 11.4998H8.32291V11.0832C8.32291 10.6998 8.38957 10.3332 8.50624 9.9915C8.67291 9.50817 8.94791 9.07484 9.29791 8.72484L10.3312 7.67484C10.7146 7.30817 10.8979 6.75817 10.7896 6.17484C10.6812 5.57484 10.2146 5.0665 9.63124 4.89984C8.70624 4.6415 7.84791 5.1665 7.57291 5.95817C7.47291 6.2665 7.21457 6.49984 6.88957 6.49984H6.63957C6.15624 6.49984 5.82291 6.03317 5.95624 5.5665C6.31457 4.3415 7.35624 3.40817 8.64791 3.20817C9.91457 3.00817 11.1229 3.6665 11.8729 4.70817C12.8562 6.0665 12.5646 7.52484 11.7146 8.37484Z" fill="#B2B2B2"/>
</svg>
