<svg width="16" height="10" viewBox="0 0 16 10" fill="none" xmlns="http://www.w3.org/2000/svg">
<path d="M1.48958 10H14.8229C15.2812 10 15.6562 9.625 15.6562 9.16667C15.6562 8.70833 15.2812 8.33333 14.8229 8.33333H1.48958C1.03125 8.33333 0.65625 8.70833 0.65625 9.16667C0.65625 9.625 1.03125 10 1.48958 10ZM1.48958 5.83333H14.8229C15.2812 5.83333 15.6562 5.45833 15.6562 5C15.6562 4.54167 15.2812 4.16667 14.8229 4.16667H1.48958C1.03125 4.16667 0.65625 4.54167 0.65625 5C0.65625 5.45833 1.03125 5.83333 1.48958 5.83333ZM0.65625 0.833333C0.65625 1.29167 1.03125 1.66667 1.48958 1.66667H14.8229C15.2812 1.66667 15.6562 1.29167 15.6562 0.833333C15.6562 0.375 15.2812 0 14.8229 0H1.48958C1.03125 0 0.65625 0.375 0.65625 0.833333Z" fill="#B2B2B2"/>
</svg>
