<svg width="12" height="17" viewBox="0 0 12 17" fill="none" xmlns="http://www.w3.org/2000/svg">
<path d="M6.15624 0.666504C2.93124 0.666504 0.322906 3.27484 0.322906 6.49984C0.322906 9.97484 4.00624 14.7665 5.52291 16.5915C5.85624 16.9915 6.46457 16.9915 6.79791 16.5915C8.30624 14.7665 11.9896 9.97484 11.9896 6.49984C11.9896 3.27484 9.38124 0.666504 6.15624 0.666504ZM6.15624 8.58317C5.00624 8.58317 4.07291 7.64984 4.07291 6.49984C4.07291 5.34984 5.00624 4.4165 6.15624 4.4165C7.30624 4.4165 8.23957 5.34984 8.23957 6.49984C8.23957 7.64984 7.30624 8.58317 6.15624 8.58317Z" fill="#B2B2B2"/>
</svg>
