<svg width="17" height="16" viewBox="0 0 17 16" fill="none" xmlns="http://www.w3.org/2000/svg">
<path d="M6.48958 11.3333V4.66667C6.48958 3.75 7.23125 3 8.15625 3H15.6563V2.16667C15.6563 1.25 14.9063 0.5 13.9896 0.5H2.32292C1.39792 0.5 0.65625 1.25 0.65625 2.16667V13.8333C0.65625 14.75 1.39792 15.5 2.32292 15.5H13.9896C14.9063 15.5 15.6563 14.75 15.6563 13.8333V13H8.15625C7.23125 13 6.48958 12.25 6.48958 11.3333ZM8.98958 4.66667C8.53125 4.66667 8.15625 5.04167 8.15625 5.5V10.5C8.15625 10.9583 8.53125 11.3333 8.98958 11.3333H16.4896V4.66667H8.98958ZM11.4896 9.25C10.7979 9.25 10.2396 8.69167 10.2396 8C10.2396 7.30833 10.7979 6.75 11.4896 6.75C12.1813 6.75 12.7396 7.30833 12.7396 8C12.7396 8.69167 12.1813 9.25 11.4896 9.25Z" fill="#B2B2B2"/>
</svg>
