<svg width="21" height="20" viewBox="0 0 21 20" fill="none" xmlns="http://www.w3.org/2000/svg">
<path fill-rule="evenodd" clip-rule="evenodd" d="M9.79918 10C12.1574 10 14.0693 7.76145 14.0693 5.00003C14.0693 2.23855 13.4416 0 9.79918 0C6.15676 0 5.52893 2.23855 5.52893 5.00003C5.52893 7.76145 7.44083 10 9.79918 10Z" fill="#B2B2B2"/>
<path fill-rule="evenodd" clip-rule="evenodd" d="M1.65421 17.1915C1.65312 17.0146 1.65203 17.1417 1.65421 17.1915V17.1915Z" fill="#B2B2B2"/>
<path fill-rule="evenodd" clip-rule="evenodd" d="M17.957 17.2175C17.9604 17.1724 17.9582 16.9047 17.957 17.2175V17.2175Z" fill="#B2B2B2"/>
<path fill-rule="evenodd" clip-rule="evenodd" d="M17.9422 17.2184C17.8622 12.7797 17.2035 11.515 12.1627 10.7144C12.1627 10.7144 11.4532 11.5101 9.7993 11.5101C8.14544 11.5101 7.43575 10.7144 7.43575 10.7144C2.44998 11.5062 1.7512 12.7522 1.65932 17.0742C1.65178 17.4271 1.64829 17.4457 1.64694 17.4047C1.64725 17.4815 1.64762 17.6234 1.64762 17.871C1.64762 17.871 2.8477 20.0001 9.7993 20.0001C16.7508 20.0001 17.951 17.871 17.951 17.871C17.951 17.712 17.9511 17.6013 17.9513 17.5261C17.9499 17.5514 17.9472 17.5023 17.9422 17.2184Z" fill="#B2B2B2"/>
<rect opacity="0.01" x="0.15625" width="20" height="20" fill="white"/>
</svg>
