<svg width="16" height="14" viewBox="0 0 16 14" fill="none" xmlns="http://www.w3.org/2000/svg">
<path d="M2.32292 2.00016H13.9896C14.4479 2.00016 14.8229 1.62516 14.8229 1.16683C14.8229 0.708496 14.4479 0.333496 13.9896 0.333496H2.32292C1.86458 0.333496 1.48958 0.708496 1.48958 1.16683C1.48958 1.62516 1.86458 2.00016 2.32292 2.00016ZM14.9563 3.50016C14.8813 3.11683 14.5396 2.8335 14.1396 2.8335H2.17292C1.77292 2.8335 1.43125 3.11683 1.35625 3.50016L0.522917 7.66683C0.422917 8.1835 0.814584 8.66683 1.33958 8.66683H1.48958V12.8335C1.48958 13.2918 1.86458 13.6668 2.32292 13.6668H8.98958C9.44792 13.6668 9.82292 13.2918 9.82292 12.8335V8.66683H13.1562V12.8335C13.1562 13.2918 13.5313 13.6668 13.9896 13.6668C14.4479 13.6668 14.8229 13.2918 14.8229 12.8335V8.66683H14.9729C15.4979 8.66683 15.8896 8.1835 15.7896 7.66683L14.9563 3.50016ZM8.15625 12.0002H3.15625V8.66683H8.15625V12.0002Z" fill="#B2B2B2"/>
</svg>
