<svg width="21" height="21" viewBox="0 0 21 21" fill="none" xmlns="http://www.w3.org/2000/svg">
<path d="M10.4844 2.74918C13.135 2.74918 13.4964 2.74918 14.5808 2.74918C15.5446 2.74918 16.0265 2.99015 16.388 3.11063C16.8699 3.35159 17.2314 3.47208 17.5928 3.83352C17.9543 4.19497 18.1952 4.55641 18.3157 5.03834C18.4362 5.39979 18.5567 5.88172 18.6771 6.84557C18.6771 7.92991 18.6771 8.17087 18.6771 10.942C18.6771 13.713 18.6771 13.954 18.6771 15.0383C18.6771 16.0022 18.4362 16.4841 18.3157 16.8456C18.0747 17.3275 17.9543 17.6889 17.5928 18.0504C17.2314 18.4118 16.8699 18.6528 16.388 18.7733C16.0265 18.8938 15.5446 19.0142 14.5808 19.1347C13.4964 19.1347 13.2555 19.1347 10.4844 19.1347C7.71329 19.1347 7.47233 19.1347 6.38799 19.1347C5.42414 19.1347 4.94221 18.8938 4.58076 18.7733C4.09883 18.5323 3.73739 18.4118 3.37594 18.0504C3.0145 17.6889 2.77353 17.3275 2.65305 16.8456C2.53257 16.4841 2.41209 16.0022 2.2916 15.0383C2.2916 13.954 2.2916 13.713 2.2916 10.942C2.2916 8.17087 2.2916 7.92991 2.2916 6.84557C2.2916 5.88172 2.53257 5.39979 2.65305 5.03834C2.89401 4.55641 3.0145 4.19497 3.37594 3.83352C3.73739 3.47208 4.09883 3.23111 4.58076 3.11063C4.94221 2.99015 5.42414 2.86967 6.38799 2.74918C7.47233 2.74918 7.83377 2.74918 10.4844 2.74918ZM10.4844 0.941956C7.71329 0.941956 7.47233 0.941956 6.38799 0.941956C5.30365 0.941956 4.58076 1.18292 3.97835 1.42388C3.37594 1.66485 2.77353 2.02629 2.17112 2.6287C1.56871 3.23111 1.32775 3.71304 0.966303 4.43593C0.72534 5.03834 0.604857 5.76123 0.484375 6.84557C0.484375 7.92991 0.484375 8.29135 0.484375 10.942C0.484375 13.713 0.484375 13.954 0.484375 15.0383C0.484375 16.1227 0.72534 16.8456 0.966303 17.448C1.20727 18.0504 1.56871 18.6528 2.17112 19.2552C2.77353 19.8576 3.25546 20.0986 3.97835 20.46C4.58076 20.701 5.30365 20.8215 6.38799 20.942C7.47233 20.942 7.83377 20.942 10.4844 20.942C13.135 20.942 13.4964 20.942 14.5808 20.942C15.6651 20.942 16.388 20.701 16.9904 20.46C17.5928 20.2191 18.1952 19.8576 18.7976 19.2552C19.4 18.6528 19.641 18.1709 20.0025 17.448C20.2434 16.8456 20.3639 16.1227 20.4844 15.0383C20.4844 13.954 20.4844 13.5926 20.4844 10.942C20.4844 8.29135 20.4844 7.92991 20.4844 6.84557C20.4844 5.76123 20.2434 5.03834 20.0025 4.43593C19.7615 3.83352 19.4 3.23111 18.7976 2.6287C18.1952 2.02629 17.7133 1.78533 16.9904 1.42388C16.388 1.18292 15.6651 1.06244 14.5808 0.941956C13.4964 0.941956 13.2555 0.941956 10.4844 0.941956Z" fill="black"/>
<path d="M10.4844 5.76123C7.59281 5.76123 5.30365 8.05039 5.30365 10.942C5.30365 13.8335 7.59281 16.1227 10.4844 16.1227C13.3759 16.1227 15.6651 13.8335 15.6651 10.942C15.6651 8.05039 13.3759 5.76123 10.4844 5.76123ZM10.4844 14.3155C8.67715 14.3155 7.11088 12.8697 7.11088 10.942C7.11088 9.13473 8.55667 7.56846 10.4844 7.56846C12.2916 7.56846 13.8579 9.01425 13.8579 10.942C13.8579 12.7492 12.2916 14.3155 10.4844 14.3155Z" fill="black"/>
<path d="M15.7856 6.84557C16.451 6.84557 16.9904 6.30616 16.9904 5.64075C16.9904 4.97535 16.451 4.43593 15.7856 4.43593C15.1202 4.43593 14.5808 4.97535 14.5808 5.64075C14.5808 6.30616 15.1202 6.84557 15.7856 6.84557Z" fill="black"/>
</svg>
