<svg width="21" height="20" viewBox="0 0 21 20" fill="none" xmlns="http://www.w3.org/2000/svg">
<path d="M4.99221 7.69584H4.99217C4.90727 6.3441 4.80166 4.66255 5.25722 3.64083C5.77981 2.46913 6.53404 1.65609 7.46187 1.13513C8.3848 0.616944 9.47408 0.391235 10.6737 0.391235C11.1969 0.391235 12.4974 0.48199 13.7304 1.27648C14.4804 1.75978 15.2043 2.50189 15.7115 3.63901C16.1771 4.68293 16.0674 6.33929 15.981 7.64479C15.9725 7.77407 15.9641 7.89998 15.9569 8.01616C15.9883 8.02276 16.0241 8.0278 16.0646 8.03013C16.1672 8.02468 16.28 8.00448 16.4023 7.96981C16.5334 7.93265 16.6723 7.87972 16.8183 7.81128C16.8928 7.77646 16.969 7.75362 17.0412 7.73898C17.1322 7.72056 17.2168 7.71538 17.2829 7.71539V7.71456C17.3659 7.71456 17.451 7.7229 17.5345 7.73889C17.6138 7.75409 17.691 7.77644 17.7626 7.80533L17.7636 7.80558C17.9789 7.88247 18.1567 8.00135 18.2835 8.14672C18.4192 8.30227 18.4963 8.48723 18.5001 8.685V8.68583C18.5048 8.9334 18.4016 9.15924 18.1921 9.36183C18.0063 9.54142 17.7342 9.70242 17.377 9.84348H17.3762C17.3358 9.85939 17.2869 9.87656 17.233 9.89459C17.1493 9.92253 17.1139 9.93381 17.0786 9.94503C16.8976 10.0024 16.6703 10.0745 16.4802 10.1707C16.3122 10.2557 16.1692 10.3589 16.1158 10.4848C16.091 10.5433 16.084 10.6139 16.0948 10.6959C16.1073 10.7913 16.1437 10.9006 16.2038 11.023L16.2041 11.0229C16.2059 11.0264 16.2054 11.0262 16.2118 11.0403L16.2122 11.0401C16.2138 11.0436 16.2161 11.0489 16.2191 11.0559C16.2429 11.1115 16.5424 11.795 17.1606 12.5235C17.7733 13.2455 18.6973 14.0059 19.9664 14.215C20.1223 14.2407 20.256 14.3229 20.3483 14.438C20.4408 14.5533 20.4921 14.7016 20.4834 14.8591C20.481 14.9015 20.4745 14.9451 20.4639 14.9893C20.4531 15.0345 20.4394 15.0765 20.4229 15.1148L20.4226 15.1146C20.2996 15.4008 20.0011 15.64 19.5203 15.835C19.1009 16.0051 18.5286 16.1483 17.7982 16.2667C17.7744 16.3484 17.7444 16.4855 17.7238 16.58L17.7234 16.5816C17.7095 16.6454 17.6944 16.713 17.6708 16.8111L17.6706 16.8111C17.6506 16.8939 17.6298 16.9743 17.6072 17.051L17.6069 17.051C17.5617 17.2054 17.4795 17.3272 17.3659 17.4123C17.2514 17.4981 17.1112 17.5431 16.9509 17.5431H16.9398L16.9365 17.5422L16.9284 17.5421V17.5429C16.866 17.5429 16.7931 17.5377 16.7104 17.5275C16.6326 17.5179 16.5441 17.5034 16.4457 17.4842C16.3027 17.4562 16.1513 17.4294 15.9859 17.4097C15.8227 17.3902 15.6439 17.3776 15.4431 17.3776C15.3264 17.3776 15.2082 17.3826 15.0896 17.3926C14.967 17.403 14.8466 17.4179 14.7293 17.4374C14.2842 17.5114 13.8825 17.7951 13.4164 18.1243L13.416 18.1237L13.4145 18.1248V18.1256C12.3791 18.8578 11.4349 19.2234 10.4832 19.223C9.53144 19.2227 8.58792 18.8565 7.5539 18.1254L7.55392 18.1254L7.5537 18.1253C7.08803 17.7961 6.68578 17.5118 6.23904 17.4374L6.23905 17.4372C6.12179 17.4178 6.00149 17.4029 5.87916 17.3926C5.76053 17.3826 5.64246 17.3776 5.52582 17.3776C5.3135 17.3776 5.12653 17.3936 4.96316 17.4155C4.80421 17.4368 4.65182 17.4665 4.52322 17.4917C4.4334 17.5093 4.34968 17.5257 4.27678 17.537C4.19325 17.5499 4.11486 17.558 4.04042 17.558C3.8572 17.558 3.71794 17.5066 3.61222 17.4297V17.4289C3.47125 17.3263 3.39875 17.1851 3.36185 17.0595C3.33532 16.9693 3.31453 16.889 3.29675 16.8142C3.27944 16.7414 3.2623 16.6628 3.24546 16.5853L3.2446 16.5814C3.22383 16.4865 3.19396 16.35 3.17023 16.2685C2.43995 16.1501 1.86774 16.0068 1.44836 15.8364C0.966953 15.6408 0.668159 15.4007 0.545252 15.1133V15.1125C0.526985 15.0694 0.513131 15.0281 0.503817 14.9888C0.494094 14.9478 0.48789 14.9047 0.485314 14.8595C0.476675 14.702 0.528116 14.5537 0.620646 14.4383C0.712924 14.3232 0.846559 14.2409 1.00258 14.2152C2.27104 14.0064 3.19495 13.2461 3.80773 12.524C4.42543 11.7962 4.72581 11.111 4.74979 11.0552L4.75026 11.0554C4.7576 11.0378 4.75907 11.0345 4.76022 11.0321L4.76053 11.0323L4.76212 11.0289L4.76379 11.0256C4.82457 10.9022 4.86137 10.792 4.874 10.6958C4.88471 10.6141 4.87785 10.5438 4.8533 10.4855L4.853 10.4856C4.73727 10.213 4.22769 10.0512 3.89038 9.94409H3.89016L3.88994 9.94479C3.86252 9.93612 3.83464 9.92729 3.73715 9.89477C3.67694 9.87472 3.626 9.85702 3.59173 9.84348C3.1683 9.67621 2.89696 9.49255 2.72813 9.31124C2.47517 9.03958 2.44101 8.77077 2.48205 8.55505C2.52864 8.3096 2.68801 8.10715 2.89593 7.96414C3.11458 7.81376 3.39133 7.7269 3.64217 7.7269C3.71192 7.7269 3.78114 7.7339 3.84929 7.74785C3.91713 7.76175 3.98161 7.78291 4.04221 7.81128C4.19954 7.88504 4.34885 7.94079 4.48901 7.97827C4.62082 8.01352 4.74236 8.03127 4.85266 8.03127C4.91643 8.03127 4.96909 8.0253 5.01222 8.01631C5.00789 7.94592 5.00314 7.87057 4.99848 7.79617L4.99229 7.69767V7.69683L4.99223 7.69583L4.99221 7.69584Z" fill="black"/>
</svg>
