<svg width="18" height="21" viewBox="0 0 18 21" fill="none" xmlns="http://www.w3.org/2000/svg">
<path fill-rule="evenodd" clip-rule="evenodd" d="M13.1846 8.09398C14.4348 9.01659 15.9666 9.55949 17.6209 9.55949V6.27319C17.3078 6.27332 16.9955 6.23959 16.6892 6.17254V8.75936C15.0351 8.75936 13.5035 8.21646 12.2529 7.29385V14.0001C12.2529 17.355 9.61842 20.0744 6.36874 20.0744C5.15627 20.0744 4.02925 19.696 3.09302 19.047C4.16154 20.1748 5.65163 20.8745 7.30018 20.8745C10.5501 20.8745 13.1847 18.1551 13.1847 14.8001V8.09398H13.1846ZM14.3339 4.77854C13.6949 4.05794 13.2754 3.12661 13.1846 2.09698V1.67432H12.3017C12.5239 2.98289 13.2819 4.10089 14.3339 4.77854ZM5.14839 16.4727C4.79142 15.9895 4.59847 15.3984 4.59933 14.7906C4.59933 13.2562 5.80438 12.0121 7.29104 12.0121C7.56806 12.0119 7.84346 12.0558 8.10754 12.1423V8.7826C7.79899 8.73896 7.48759 8.72045 7.17622 8.72726V11.3423C6.91203 11.2558 6.63651 11.2119 6.35938 11.2121C4.87272 11.2121 3.66778 12.4562 3.66778 13.9907C3.66778 15.0757 4.27008 16.0151 5.14839 16.4727Z" fill="#EE1D52"/>
<path fill-rule="evenodd" clip-rule="evenodd" d="M12.253 7.29385C13.5036 8.21646 15.0352 8.75936 16.6893 8.75936V6.17254C15.766 5.96959 14.9486 5.47141 14.3339 4.77854C13.282 4.10089 12.524 2.98289 12.3018 1.67432H9.98273V14.8C9.97747 16.3302 8.77448 17.5691 7.29102 17.5691C6.41682 17.5691 5.64019 17.139 5.14837 16.4727C4.27006 16.0151 3.66777 15.0757 3.66777 13.9907C3.66777 12.4562 4.8727 11.2121 6.35936 11.2121C6.64417 11.2121 6.9187 11.2579 7.1762 11.3423V8.72726C3.98365 8.79535 1.41602 11.4882 1.41602 14.8001C1.41602 16.4534 2.05544 17.9522 3.09312 19.0471C4.02935 19.6961 5.15637 20.0745 6.36884 20.0745C9.61852 20.0745 12.253 17.355 12.253 14.0002V7.29385Z" fill="black"/>
<path fill-rule="evenodd" clip-rule="evenodd" d="M16.6892 6.17278V5.4733C15.8565 5.4746 15.0403 5.23388 14.3338 4.77866C14.9592 5.48543 15.7826 5.97283 16.6892 6.17278ZM12.3017 1.67455C12.2804 1.54951 12.2642 1.42362 12.2529 1.2972V0.874542H9.05085V14.0004C9.04571 15.5304 7.84284 16.7694 6.35926 16.7694C5.92365 16.7694 5.51248 16.6627 5.14827 16.473C5.64009 17.1393 6.41673 17.5694 7.29092 17.5694C8.77427 17.5694 9.97737 16.3304 9.98263 14.8003V1.67455H12.3017ZM7.17622 8.7275V7.98283C6.90866 7.94504 6.63891 7.92616 6.36886 7.92631C3.11884 7.92631 0.484375 10.6459 0.484375 14.0004C0.484375 16.1035 1.51977 17.957 3.09314 19.0473C2.05546 17.9523 1.41604 16.4535 1.41604 14.8003C1.41604 11.4885 3.98356 8.79558 7.17622 8.7275Z" fill="#69C9D0"/>
</svg>
