<svg width="21" height="21" viewBox="0 0 21 21" fill="none" xmlns="http://www.w3.org/2000/svg">
<path fill-rule="evenodd" clip-rule="evenodd" d="M17.4844 3.54724C15.6094 1.67224 13.1094 0.672241 10.4844 0.672241C4.98438 0.672241 0.484375 5.17224 0.484375 10.6722C0.484375 12.4222 0.984383 14.1722 1.85938 15.6722L0.484375 20.6722L5.73439 19.2972C7.23439 20.0472 8.85938 20.5472 10.4844 20.5472C15.9844 20.5472 20.4844 16.0472 20.4844 10.5472C20.4844 7.92224 19.3594 5.42224 17.4844 3.54724ZM10.4844 18.9222C8.98438 18.9222 7.48438 18.5472 6.23438 17.7972L5.98437 17.6722L2.85937 18.5472L3.73438 15.5472L3.48437 15.1722C2.60937 13.7972 2.23437 12.2972 2.23437 10.7972C2.23437 6.29724 5.98438 2.54724 10.4844 2.54724C12.7344 2.54724 14.7344 3.42224 16.3594 4.92224C17.9844 6.54724 18.7344 8.54724 18.7344 10.7972C18.7344 15.1722 15.1094 18.9222 10.4844 18.9222ZM14.9844 12.6722C14.7344 12.5472 13.4844 11.9222 13.2344 11.9222C12.9844 11.7972 12.8594 11.7972 12.7344 12.0472C12.6094 12.2972 12.1094 12.7972 11.9844 13.0472C11.8594 13.1722 11.7344 13.1722 11.4844 13.1722C11.2344 13.0472 10.4844 12.7972 9.48439 11.9222C8.73439 11.2972 8.23438 10.4222 8.10938 10.1722C7.98438 9.92224 8.10939 9.79724 8.23439 9.67224C8.35939 9.54724 8.48438 9.42224 8.60938 9.29724C8.73438 9.17224 8.73439 9.04724 8.85939 8.92224C8.98439 8.79724 8.85939 8.67224 8.85939 8.54724C8.85939 8.42224 8.35938 7.17224 8.10938 6.67224C7.98438 6.29724 7.73439 6.29724 7.60939 6.29724C7.48439 6.29724 7.35936 6.29724 7.10936 6.29724C6.98436 6.29724 6.73436 6.29724 6.48436 6.54724C6.23436 6.79724 5.60938 7.42224 5.60938 8.67224C5.60938 9.92224 6.48437 11.0472 6.60937 11.2972C6.73437 11.4222 8.35936 14.0472 10.8594 15.0472C12.9844 15.9222 13.3594 15.6722 13.8594 15.6722C14.3594 15.6722 15.3594 15.0472 15.4844 14.5472C15.7344 13.9222 15.7344 13.4222 15.6094 13.4222C15.4844 12.7972 15.2344 12.7972 14.9844 12.6722Z" fill="black"/>
</svg>
