<svg width="21" height="15" viewBox="0 0 21 15" fill="none" xmlns="http://www.w3.org/2000/svg">
<path d="M19.9844 2.86469C19.7344 1.98969 19.1094 1.36469 18.2344 1.11469C16.7344 0.739685 10.3594 0.739685 10.3594 0.739685C10.3594 0.739685 4.10938 0.739685 2.48438 1.11469C1.60938 1.36469 0.984371 1.98969 0.734371 2.86469C0.484371 4.48969 0.484375 7.73969 0.484375 7.73969C0.484375 7.73969 0.484379 10.9897 0.859379 12.6147C1.10938 13.4897 1.73437 14.1147 2.60937 14.3647C4.10937 14.7397 10.4844 14.7397 10.4844 14.7397C10.4844 14.7397 16.7344 14.7397 18.3594 14.3647C19.2344 14.1147 19.8594 13.4897 20.1094 12.6147C20.4844 10.9897 20.4844 7.73969 20.4844 7.73969C20.4844 7.73969 20.4844 4.48969 19.9844 2.86469ZM8.48437 10.7397V4.73969L13.7344 7.73969L8.48437 10.7397Z" fill="black"/>
</svg>
