<svg width="16" height="18" viewBox="0 0 16 18" fill="none" xmlns="http://www.w3.org/2000/svg">
<path d="M14.1245 2.15893L13.2912 2.15908L13.2909 0.492412L11.6242 0.492699L11.6245 2.15937L4.95785 2.16052L4.95756 0.493849L3.29089 0.494137L3.29118 2.1608L2.45785 2.16095C1.53285 2.16111 0.799644 2.91123 0.799802 3.8279L0.793481 15.4946C0.793639 16.4112 1.53543 17.1611 2.46043 17.1609L14.1271 17.1589C15.0438 17.1588 15.7936 16.4086 15.7935 15.492L15.7915 3.82531C15.7913 2.90865 15.0412 2.15878 14.1245 2.15893ZM14.1268 15.4923L2.46015 15.4943L2.45871 7.16095L14.1254 7.15893L14.1268 15.4923ZM14.1251 5.49227L2.45842 5.49428L2.45814 3.82761L14.1248 3.8256L14.1251 5.49227ZM12.4591 9.65922L8.29247 9.65994L8.29319 13.8266L12.4599 13.8259L12.4591 9.65922Z" />
</svg>
