<svg width="21" height="21" viewBox="0 0 21 21" fill="none" xmlns="http://www.w3.org/2000/svg">
<path fill-rule="evenodd" clip-rule="evenodd" d="M10.9947 5.00758C8.19474 5.0071 5.99436 7.20672 5.99388 10.0067C5.9934 12.8067 8.19302 15.0071 10.993 15.0076C13.793 15.0081 15.9934 12.8084 15.9939 10.0084C15.9944 7.20845 13.7947 5.00807 10.9947 5.00758ZM10.9956 0.00758427C5.49561 0.00663558 0.994829 4.50586 0.993881 10.0059C0.992932 15.5059 5.49216 20.0066 10.9922 20.0076C16.4922 20.0085 20.9929 15.5093 20.9939 10.0093C20.9948 4.50931 16.4956 0.00853296 10.9956 0.00758427ZM10.9925 18.0076C6.5925 18.0068 2.99312 14.4062 2.99388 10.0062C2.99464 5.6062 6.59526 2.00683 10.9953 2.00758C15.3953 2.00834 18.9946 5.60896 18.9939 10.009C18.9931 14.409 15.3925 18.0083 10.9925 18.0076Z" fill="black"/>
</svg>
