<svg width="195" height="254" viewBox="0 0 195 254" fill="none" xmlns="http://www.w3.org/2000/svg">
<path d="M98.5055 208.798H90.5587C89.8491 208.798 89.1685 208.516 88.6668 208.014C88.165 207.512 87.8831 206.832 87.8831 206.122C87.8831 205.412 88.165 204.732 88.6668 204.23C89.1685 203.728 89.8491 203.446 90.5587 203.446H98.5055C99.2151 203.446 99.8957 203.728 100.397 204.23C100.899 204.732 101.181 205.412 101.181 206.122C101.181 206.832 100.899 207.512 100.397 208.014C99.8957 208.516 99.2151 208.798 98.5055 208.798Z" fill="#D9D9D9"/>
<path d="M45.313 208.797H27.4662C26.7566 208.797 26.076 208.516 25.5742 208.014C25.0724 207.512 24.7905 206.831 24.7905 206.122V130.373C24.7905 129.664 25.0724 128.983 25.5742 128.481C26.076 127.98 26.7566 127.698 27.4662 127.698C28.1758 127.698 28.8564 127.98 29.3582 128.481C29.86 128.983 30.1419 129.664 30.1419 130.373V203.446H45.313C46.0226 203.446 46.7032 203.728 47.205 204.23C47.7067 204.732 47.9886 205.412 47.9886 206.122C47.9886 206.831 47.7067 207.512 47.205 208.014C46.7032 208.516 46.0226 208.797 45.313 208.797Z" fill="#D9D9D9"/>
<path d="M71.8291 208.798H64.0429C63.3332 208.798 62.6527 208.516 62.1509 208.014C61.6491 207.512 61.3672 206.832 61.3672 206.122C61.3672 205.412 61.6491 204.732 62.1509 204.23C62.6527 203.728 63.3332 203.446 64.0429 203.446H71.8291C72.5387 203.446 73.2193 203.728 73.7211 204.23C74.2228 204.732 74.5048 205.412 74.5048 206.122C74.5048 206.832 74.2228 207.512 73.7211 208.014C73.2193 208.516 72.5387 208.798 71.8291 208.798Z" fill="#D9D9D9"/>
<path d="M161.518 208.797H117.235C116.526 208.797 115.845 208.516 115.343 208.014C114.841 207.512 114.56 206.831 114.56 206.122C114.56 205.412 114.841 204.732 115.343 204.23C115.845 203.728 116.526 203.446 117.235 203.446H158.842V130.373C158.842 129.664 159.124 128.983 159.626 128.481C160.127 127.98 160.808 127.698 161.518 127.698C162.227 127.698 162.908 127.98 163.41 128.481C163.911 128.983 164.193 129.664 164.193 130.373V206.122C164.193 206.831 163.911 207.512 163.41 208.014C162.908 208.516 162.227 208.797 161.518 208.797Z" fill="#D9D9D9"/>
<path d="M174.281 140.873C170.77 140.871 167.391 139.532 164.833 137.127L94.4919 71.3429L24.1511 137.143C22.8227 138.384 21.2627 139.351 19.5603 139.989C17.858 140.626 16.0466 140.922 14.2299 140.859C12.4131 140.796 10.6265 140.376 8.97234 139.622C7.31813 138.868 5.82871 137.796 4.58923 136.466C3.34656 135.14 2.37738 133.582 1.73708 131.881C1.09678 130.18 0.797912 128.37 0.857548 126.554C0.917184 124.737 1.33416 122.95 2.08464 121.295C2.83513 119.64 3.90441 118.149 5.23139 116.907L27.2683 96.3043C27.7866 95.8193 28.4765 95.56 29.186 95.5836C29.8955 95.6072 30.5666 95.9117 31.0517 96.4301C31.5367 96.9485 31.7959 97.6383 31.7724 98.3478C31.7488 99.0574 31.4443 99.7285 30.9259 100.213L8.88369 120.822C8.06868 121.584 7.41183 122.5 6.95064 123.516C6.48946 124.532 6.23297 125.629 6.19582 126.745C6.12081 128.998 6.94377 131.188 8.48368 132.834C10.0236 134.48 12.1543 135.447 14.4071 135.522C16.6598 135.597 18.8501 134.774 20.4961 133.234L92.6618 65.724C93.1577 65.259 93.8121 65.0002 94.4919 65.0002C95.1718 65.0002 95.8262 65.259 96.3221 65.724L168.485 133.226C170.155 134.709 172.331 135.494 174.563 135.419C176.796 135.344 178.914 134.414 180.48 132.822C181.245 132.01 181.842 131.056 182.238 130.013C182.633 128.971 182.819 127.86 182.785 126.746C182.751 125.631 182.498 124.534 182.039 123.518C181.581 122.501 180.926 121.585 180.114 120.822L100.285 46.1702C98.7106 44.707 96.6411 43.8937 94.4919 43.8937C92.3428 43.8937 90.2733 44.707 88.6991 46.1702L59.3523 73.6119C59.101 73.8744 58.7989 74.083 58.4643 74.2249C58.1298 74.3668 57.7699 74.4391 57.4065 74.4373C57.0431 74.4356 56.6839 74.3598 56.3507 74.2147C56.0176 74.0695 55.7175 73.858 55.4688 73.5931C55.22 73.3282 55.0279 73.0154 54.904 72.6737C54.7801 72.3321 54.7272 71.9688 54.7483 71.6061C54.7694 71.2433 54.8642 70.8886 55.0269 70.5637C55.1896 70.2388 55.4168 69.9504 55.6946 69.7161L85.0468 42.2664C87.6137 39.8813 90.988 38.5557 94.4919 38.5557C97.9959 38.5557 101.37 39.8813 103.937 42.2664L183.755 116.918C185.779 118.819 187.185 121.285 187.792 123.995C188.398 126.705 188.176 129.535 187.155 132.118C186.134 134.7 184.361 136.917 182.065 138.48C179.77 140.043 177.058 140.88 174.281 140.884V140.873Z" fill="#D9D9D9"/>
<path d="M29.0932 100.92C28.3835 100.92 27.703 100.638 27.2012 100.136C26.6994 99.6344 26.4175 98.9538 26.4175 98.2442V38.1913C26.4175 37.4817 26.6994 36.8011 27.2012 36.2993C27.703 35.7975 28.3835 35.5156 29.0932 35.5156H57.5276C58.2372 35.5156 58.9178 35.7975 59.4196 36.2993C59.9213 36.8011 60.2032 37.4817 60.2032 38.1913V71.6586C60.2032 72.3683 59.9213 73.0489 59.4196 73.5506C58.9178 74.0524 58.2372 74.3343 57.5276 74.3343C56.8179 74.3343 56.1374 74.0524 55.6356 73.5506C55.1338 73.0489 54.8519 72.3683 54.8519 71.6586V40.867H31.7688V98.2442C31.7688 98.9538 31.4869 99.6344 30.9851 100.136C30.4834 100.638 29.8028 100.92 29.0932 100.92Z" fill="#D9D9D9"/>
<path d="M91.8164 186.376C91.2739 186.376 90.7441 186.211 90.2973 185.904C89.8505 185.596 89.5078 185.159 89.3146 184.652C85.2688 174.973 80.1303 165.788 73.9991 157.275C71.2051 153.344 69.1114 148.96 67.8102 144.317L67.5427 143.284C65.9827 137.438 66.5234 131.23 69.0705 125.742C71.1327 121.462 74.361 117.85 78.3842 115.323C82.4075 112.795 87.0624 111.454 91.8137 111.454C96.5651 111.454 101.22 112.795 105.243 115.323C109.266 117.85 112.495 121.462 114.557 125.742C117.099 131.227 117.64 137.428 116.087 143.27L115.82 144.295C114.518 148.941 112.425 153.328 109.631 157.262C103.523 165.787 98.3904 174.97 94.3289 184.639C94.1372 185.15 93.7938 185.591 93.3447 185.901C92.8956 186.211 92.3623 186.377 91.8164 186.376ZM91.8164 116.808C88.0681 116.801 84.3945 117.856 81.2216 119.852C78.0487 121.848 75.5063 124.702 73.8894 128.083C71.8916 132.437 71.4836 137.352 72.7362 141.975L72.9796 142.904C74.1178 146.952 75.9463 150.772 78.3845 154.198C83.48 161.377 87.9727 168.965 91.8164 176.885C95.6541 168.961 100.146 161.372 105.246 154.195C107.684 150.768 109.512 146.945 110.65 142.896L110.894 141.965C112.142 137.345 111.734 132.434 109.741 128.083C108.125 124.701 105.583 121.847 102.411 119.851C99.2381 117.855 95.5645 116.8 91.8164 116.808Z" fill="#D9D9D9"/>
<path d="M91.8163 151.338C88.9951 151.338 86.2373 150.501 83.8916 148.934C81.5459 147.366 79.7176 145.139 78.638 142.532C77.5584 139.926 77.276 137.058 77.8263 134.291C78.3767 131.524 79.7352 128.982 81.7301 126.987C83.725 124.993 86.2665 123.634 89.0335 123.084C91.8004 122.533 94.6685 122.816 97.2749 123.895C99.8813 124.975 102.109 126.803 103.676 129.149C105.244 131.495 106.08 134.252 106.08 137.074C106.075 140.855 104.571 144.48 101.897 147.154C99.223 149.828 95.5978 151.333 91.8163 151.338ZM91.8163 128.161C90.0535 128.161 88.3303 128.684 86.8647 129.663C85.399 130.642 84.2566 132.034 83.582 133.663C82.9075 135.291 82.731 137.084 83.0749 138.812C83.4188 140.541 84.2676 142.129 85.5141 143.376C86.7605 144.622 88.3486 145.471 90.0775 145.815C91.8064 146.159 93.5984 145.982 95.227 145.308C96.8556 144.633 98.2476 143.491 99.2269 142.025C100.206 140.56 100.729 138.836 100.729 137.074C100.727 134.71 99.7871 132.445 98.1161 130.774C96.4451 129.103 94.1794 128.163 91.8163 128.161Z" fill="#D9D9D9"/>
<path d="M182.086 73.4648C182.587 73.9659 183.244 74.2168 183.901 74.2168C184.558 74.2168 185.215 73.9663 185.717 73.4648L187.834 71.3472L189.952 73.4648C190.453 73.9659 191.11 74.2168 191.767 74.2168C192.424 74.2168 193.081 73.9663 193.583 73.4648C194.585 72.4623 194.585 70.8369 193.583 69.8347L191.465 67.7168L193.583 65.5988C194.585 64.5963 194.585 62.9708 193.583 61.9687C192.58 60.9662 190.955 60.9662 189.952 61.9687L187.835 64.0863L185.717 61.9687C184.714 60.9662 183.089 60.9662 182.086 61.9687C181.084 62.9712 181.084 64.5966 182.086 65.5988L184.204 67.7168L182.086 69.8347C181.083 70.8369 181.083 72.4623 182.086 73.4648Z" fill="#D9D9D9"/>
<path d="M5.7435 12.9209C6.24492 13.422 6.90208 13.6729 7.55889 13.6729C8.21571 13.6729 8.87287 13.4223 9.37429 12.9209L11.4919 10.8033L13.6095 12.9209C14.111 13.422 14.7681 13.6729 15.4249 13.6729C16.0817 13.6729 16.7389 13.4223 17.2403 12.9209C18.2428 11.9184 18.2428 10.2929 17.2403 9.29077L15.1224 7.17281L17.2403 5.05484C18.2428 4.05234 18.2428 2.4269 17.2403 1.42473C16.2375 0.422225 14.6124 0.422225 13.6099 1.42473L11.4923 3.54235L9.37463 1.42473C8.37178 0.422225 6.74668 0.422225 5.74418 1.42473C4.74167 2.42724 4.74167 4.05268 5.74418 5.05484L7.86215 7.17281L5.74418 9.29077C4.74098 10.2929 4.74099 11.9184 5.7435 12.9209Z" fill="#D9D9D9"/>
<path d="M151.945 252.343C152.446 252.844 153.103 253.095 153.76 253.095C154.417 253.095 155.074 252.844 155.575 252.343L157.693 250.225L159.811 252.343C160.312 252.844 160.969 253.095 161.626 253.095C162.283 253.095 162.94 252.844 163.442 252.343C164.444 251.34 164.444 249.715 163.442 248.713L161.324 246.595L163.442 244.477C164.444 243.474 164.444 241.849 163.442 240.847C162.439 239.844 160.814 239.844 159.811 240.847L157.693 242.964L155.576 240.847C154.573 239.844 152.948 239.844 151.945 240.847C150.943 241.849 150.943 243.475 151.945 244.477L154.063 246.595L151.945 248.713C150.942 249.715 150.942 251.34 151.945 252.343Z" fill="#D9D9D9"/>
</svg>
