<svg width="21" height="20" viewBox="0 0 21 20" fill="none" xmlns="http://www.w3.org/2000/svg">
<g clip-path="url(#clip0_477:3613)">
<path d="M20.3718 0.0027221C16.4677 -0.0672779 12.0152 1.97356 9.19686 5.13939C6.50353 5.19022 3.88103 6.29439 1.9502 8.22522C1.8377 8.33606 1.7977 8.50189 1.84687 8.65189C1.89687 8.80272 2.02687 8.91189 2.18353 8.93439L5.3952 9.39439L4.99853 9.83856C4.85103 10.0036 4.85853 10.2544 5.0152 10.4111L10.371 15.7669C10.4519 15.8477 10.5585 15.8886 10.666 15.8886C10.7652 15.8886 10.8644 15.8536 10.9435 15.7827L11.3877 15.3861L11.8477 18.5977C11.8702 18.7544 11.9935 18.8694 12.1427 18.9194C12.181 18.9319 12.221 18.9377 12.2619 18.9377C12.3802 18.9377 12.501 18.8861 12.5844 18.8036C14.4885 16.8994 15.5927 14.2769 15.6435 11.5836C18.8127 8.75939 20.8702 4.30856 20.7793 0.409389C20.7735 0.187722 20.5943 0.00855544 20.3718 0.0027221ZM16.5318 7.19606C16.126 7.60189 15.5927 7.80522 15.0585 7.80522C14.5244 7.80522 13.991 7.60189 13.5852 7.19606C12.7735 6.38356 12.7735 5.06189 13.5852 4.24939C14.3977 3.43689 15.7193 3.43689 16.5318 4.24939C17.3443 5.06189 17.3443 6.38439 16.5318 7.19606Z" fill="black"/>
<path d="M3.05179 14.0878C2.16012 14.9794 0.935953 19.0078 0.799286 19.4636C0.755119 19.6103 0.795953 19.7695 0.903453 19.8778C0.983453 19.9578 1.08929 20.0003 1.19845 20.0003C1.23845 20.0003 1.27845 19.9945 1.31845 19.9828C1.77429 19.8461 5.80262 18.622 6.69429 17.7303C7.69845 16.7261 7.69845 15.0919 6.69429 14.0878C5.68929 13.0836 4.05595 13.0844 3.05179 14.0878Z" fill="black"/>
</g>
<defs>
<clipPath id="clip0_477:3613">
<rect width="20" height="20" fill="white" transform="translate(0.781738)"/>
</clipPath>
</defs>
</svg>
