<svg width="16" height="16" viewBox="0 0 16 16" fill="none" xmlns="http://www.w3.org/2000/svg">
<path fill-rule="evenodd" clip-rule="evenodd" d="M11.4601 10.3189L15.7639 14.6227C15.9151 14.7741 16.0001 14.9793 16 15.1933C15.9999 15.4073 15.9148 15.6125 15.7635 15.7638C15.6121 15.9151 15.4068 16 15.1928 16C14.9788 15.9999 14.7736 15.9148 14.6223 15.7634L10.3185 11.4596C9.03194 12.4561 7.41407 12.9251 5.79403 12.771C4.17398 12.617 2.67346 11.8516 1.59771 10.6306C0.521957 9.40948 -0.0482098 7.82444 0.00319691 6.19791C0.0546036 4.57137 0.723722 3.02551 1.87443 1.8748C3.02514 0.724088 4.57101 0.0549698 6.19754 0.00356312C7.82408 -0.0478436 9.40911 0.522323 10.6302 1.59807C11.8513 2.67382 12.6167 4.17435 12.7707 5.79439C12.9247 7.41444 12.4558 9.03231 11.4593 10.3189H11.4601ZM6.4003 11.1996C7.67328 11.1996 8.89412 10.6939 9.79425 9.79381C10.6944 8.89368 11.2001 7.67284 11.2001 6.39986C11.2001 5.12688 10.6944 3.90604 9.79425 3.00591C8.89412 2.10578 7.67328 1.60009 6.4003 1.60009C5.12732 1.60009 3.90648 2.10578 3.00634 3.00591C2.10621 3.90604 1.60052 5.12688 1.60052 6.39986C1.60052 7.67284 2.10621 8.89368 3.00634 9.79381C3.90648 10.6939 5.12732 11.1996 6.4003 11.1996Z" fill="black"/>
</svg>
