<svg width="19" height="21" viewBox="0 0 19 21" fill="none" xmlns="http://www.w3.org/2000/svg">
<path d="M4.05631 0.0136719L4.05631 11.347M4.05631 11.347C2.58356 11.347 1.38965 12.5409 1.38965 14.0137C1.38965 15.4864 2.58356 16.6803 4.05631 16.6803M4.05631 11.347C5.52907 11.347 6.72298 12.5409 6.72298 14.0137C6.72298 15.4864 5.52907 16.6803 4.05631 16.6803M4.05631 16.6803V20.0137M14.723 0.0136719L14.723 3.34701M14.723 3.34701C13.2502 3.34701 12.0563 4.54091 12.0563 6.01367C12.0563 7.48643 13.2502 8.68034 14.723 8.68034M14.723 3.34701C16.1957 3.34701 17.3896 4.54091 17.3896 6.01367C17.3896 7.48643 16.1957 8.68034 14.723 8.68034M14.723 8.68034V20.0137" stroke="#004BDD" stroke-width="1.5"/>
</svg>
