<svg width="164" height="38" viewBox="0 0 164 38" fill="none" xmlns="http://www.w3.org/2000/svg">
<path d="M0.300049 29.4V25.1L17.1001 1H24V24.45H28.6501V29.4H24V37H18.4001V29.4H0.300049ZM18.6501 6.8L6.85005 24.45H18.6501V6.8Z" fill="black"/>
<path d="M32.623 5.74981V0.549805H43.023V36.9998H37.273V5.74981H32.623Z" fill="black"/>
<path d="M50.1036 5.74981V0.549805H60.5036V36.9998H54.7536V5.74981H50.1036Z" fill="black"/>
<path d="M94.234 12.2498C93.334 10.5165 92.084 9.21646 90.484 8.3498C88.884 7.4498 87.034 6.9998 84.934 6.9998C82.634 6.9998 80.584 7.51646 78.784 8.5498C76.984 9.58313 75.5674 11.0498 74.534 12.9498C73.534 14.8498 73.034 17.0498 73.034 19.5498C73.034 22.0498 73.534 24.2665 74.534 26.1998C75.5674 28.0998 76.984 29.5665 78.784 30.5998C80.584 31.6331 82.634 32.1498 84.934 32.1498C88.034 32.1498 90.5507 31.2831 92.484 29.5498C94.4174 27.8165 95.6007 25.4665 96.034 22.4998H82.984V17.9498H102.134V22.3998C101.767 25.0998 100.801 27.5831 99.234 29.8498C97.7007 32.1165 95.684 33.9331 93.184 35.2998C90.7174 36.6331 87.9674 37.2998 84.934 37.2998C81.6674 37.2998 78.684 36.5498 75.984 35.0498C73.284 33.5165 71.134 31.3998 69.534 28.6998C67.9674 25.9998 67.184 22.9498 67.184 19.5498C67.184 16.1498 67.9674 13.0998 69.534 10.3998C71.134 7.6998 73.284 5.5998 75.984 4.0998C78.7174 2.56646 81.7007 1.7998 84.934 1.7998C88.634 1.7998 91.9174 2.71646 94.784 4.5498C97.684 6.3498 99.784 8.91646 101.084 12.2498H94.234Z" fill="black"/>
<path d="M133.006 22.55C133.006 23.5833 132.939 24.5167 132.806 25.35H111.756C111.923 27.55 112.739 29.3167 114.206 30.65C115.673 31.9833 117.473 32.65 119.606 32.65C122.673 32.65 124.839 31.3667 126.106 28.8H132.256C131.423 31.3333 129.906 33.4167 127.706 35.05C125.539 36.65 122.839 37.45 119.606 37.45C116.973 37.45 114.606 36.8667 112.506 35.7C110.439 34.5 108.806 32.8333 107.606 30.7C106.439 28.5333 105.856 26.0333 105.856 23.2C105.856 20.3667 106.423 17.8833 107.556 15.75C108.723 13.5833 110.339 11.9167 112.406 10.75C114.506 9.58333 116.906 9 119.606 9C122.206 9 124.523 9.56666 126.556 10.7C128.589 11.8333 130.173 13.4333 131.306 15.5C132.439 17.5333 133.006 19.8833 133.006 22.55ZM127.056 20.75C127.023 18.65 126.273 16.9667 124.806 15.7C123.339 14.4333 121.523 13.8 119.356 13.8C117.389 13.8 115.706 14.4333 114.306 15.7C112.906 16.9333 112.073 18.6167 111.806 20.75H127.056Z" fill="black"/>
<path d="M152.515 9C154.682 9 156.615 9.45 158.315 10.35C160.049 11.25 161.399 12.5833 162.365 14.35C163.332 16.1167 163.815 18.25 163.815 20.75V37H158.165V21.6C158.165 19.1333 157.549 17.25 156.315 15.95C155.082 14.6167 153.399 13.95 151.265 13.95C149.132 13.95 147.432 14.6167 146.165 15.95C144.932 17.25 144.315 19.1333 144.315 21.6V37H138.615V9.45H144.315V12.6C145.249 11.4667 146.432 10.5833 147.865 9.95C149.332 9.31666 150.882 9 152.515 9Z" fill="black"/>
</svg>
