<svg width="4" height="14" viewBox="0 0 4 14" fill="none" xmlns="http://www.w3.org/2000/svg">
<path d="M2.33317 3.66634C3.24984 3.66634 3.99984 2.91634 3.99984 1.99967C3.99984 1.08301 3.24984 0.333008 2.33317 0.333008C1.4165 0.333008 0.666504 1.08301 0.666504 1.99967C0.666504 2.91634 1.4165 3.66634 2.33317 3.66634ZM2.33317 5.33301C1.4165 5.33301 0.666504 6.08301 0.666504 6.99967C0.666504 7.91634 1.4165 8.66634 2.33317 8.66634C3.24984 8.66634 3.99984 7.91634 3.99984 6.99967C3.99984 6.08301 3.24984 5.33301 2.33317 5.33301ZM2.33317 10.333C1.4165 10.333 0.666504 11.083 0.666504 11.9997C0.666504 12.9163 1.4165 13.6663 2.33317 13.6663C3.24984 13.6663 3.99984 12.9163 3.99984 11.9997C3.99984 11.083 3.24984 10.333 2.33317 10.333Z" fill="#004BDD"/>
</svg>
