<svg width="39" height="30" viewBox="0 0 39 30" fill="none" xmlns="http://www.w3.org/2000/svg">
<path fill-rule="evenodd" clip-rule="evenodd" d="M10.8564 26.3025V27.8365V29.3706H10.1784V28.9981C9.96339 29.2744 9.63712 29.4478 9.19361 29.4478C8.3193 29.4478 7.63389 28.774 7.63389 27.8365C7.63389 26.8998 8.3193 26.2253 9.19361 26.2253C9.63712 26.2253 9.96339 26.3987 10.1784 26.675V26.3025H10.8564ZM9.27799 26.8543C8.69114 26.8543 8.33201 27.2973 8.33201 27.8366C8.33201 28.3759 8.69114 28.8189 9.27799 28.8189C9.83872 28.8189 10.2173 28.395 10.2173 27.8366C10.2173 27.2782 9.83872 26.8543 9.27799 26.8543ZM33.7661 27.8366C33.7661 27.2973 34.1253 26.8543 34.7121 26.8543C35.2736 26.8543 35.6514 27.2782 35.6514 27.8366C35.6514 28.395 35.2736 28.8189 34.7121 28.8189C34.1253 28.8189 33.7661 28.3759 33.7661 27.8366ZM36.2912 25.0704V27.8365V29.3706H35.6125V28.9981C35.3975 29.2744 35.0712 29.4478 34.6277 29.4478C33.7534 29.4478 33.068 28.774 33.068 27.8365C33.068 26.8998 33.7534 26.2253 34.6277 26.2253C35.0712 26.2253 35.3975 26.3987 35.6125 26.675V25.0704H36.2912ZM19.2717 26.8226C19.7085 26.8226 19.9893 27.0922 20.0609 27.5669H18.443C18.5154 27.1238 18.7887 26.8226 19.2717 26.8226ZM17.7321 27.8365C17.7321 26.8799 18.3712 26.2253 19.2851 26.2253C20.1587 26.2253 20.759 26.8799 20.7657 27.8365C20.7657 27.9262 20.759 28.0099 20.7523 28.0929H18.4369C18.5347 28.6455 18.9327 28.8446 19.3695 28.8446C19.6823 28.8446 20.0153 28.7285 20.2767 28.5235L20.6089 29.0179C20.2304 29.3324 19.8003 29.4478 19.3307 29.4478C18.3974 29.4478 17.7321 28.8122 17.7321 27.8365ZM27.4713 27.8366C27.4713 27.2973 27.8304 26.8543 28.4173 26.8543C28.978 26.8543 29.3565 27.2782 29.3565 27.8366C29.3565 28.395 28.978 28.8189 28.4173 28.8189C27.8304 28.8189 27.4713 28.3759 27.4713 27.8366ZM29.9957 26.3025V27.8365V29.3706H29.3177V28.9981C29.102 29.2744 28.7764 29.4478 28.3329 29.4478C27.4586 29.4478 26.7732 28.774 26.7732 27.8365C26.7732 26.8998 27.4586 26.2253 28.3329 26.2253C28.7764 26.2253 29.102 26.3987 29.3177 26.675V26.3025H29.9957ZM23.6425 27.8365C23.6425 28.7674 24.301 29.4478 25.306 29.4478C25.7756 29.4478 26.0885 29.3449 26.4274 29.0819L26.1019 28.5426C25.8473 28.7226 25.58 28.8188 25.2858 28.8188C24.7445 28.8122 24.3466 28.4272 24.3466 27.8365C24.3466 27.2458 24.7445 26.8608 25.2858 26.8542C25.58 26.8542 25.8473 26.9505 26.1019 27.1305L26.4274 26.5912C26.0885 26.3282 25.7756 26.2253 25.306 26.2253C24.301 26.2253 23.6425 26.9057 23.6425 27.8365ZM31.5613 26.6751C31.7375 26.4054 31.9921 26.2254 32.3833 26.2254C32.5207 26.2254 32.7163 26.2511 32.8664 26.3092L32.6573 26.9381C32.514 26.8801 32.3706 26.861 32.2332 26.861C31.7897 26.861 31.568 27.1431 31.568 27.6508V29.3707H30.8893V26.3026H31.5613V26.6751ZM14.2094 26.5464C13.8832 26.3348 13.4337 26.2253 12.9379 26.2253C12.148 26.2253 11.6395 26.5978 11.6395 27.2076C11.6395 27.708 12.0181 28.0165 12.7154 28.1128L13.0357 28.1576C13.4075 28.209 13.583 28.3053 13.583 28.4787C13.583 28.716 13.3351 28.8512 12.8722 28.8512C12.4026 28.8512 12.0636 28.7035 11.8351 28.5301L11.5156 29.0495C11.8874 29.3192 12.357 29.4478 12.8655 29.4478C13.7659 29.4478 14.2878 29.0304 14.2878 28.4463C14.2878 27.9071 13.8772 27.6249 13.1985 27.5287L12.8789 27.4831C12.5855 27.4449 12.3503 27.3876 12.3503 27.1819C12.3503 26.9571 12.5721 26.8226 12.9439 26.8226C13.3418 26.8226 13.7271 26.9703 13.916 27.0857L14.2094 26.5464ZM22.1358 26.6751C22.3113 26.4054 22.5659 26.2254 22.9571 26.2254C23.0945 26.2254 23.2901 26.2511 23.4402 26.3092L23.2311 26.9381C23.0878 26.8801 22.9444 26.861 22.8071 26.861C22.3636 26.861 22.1418 27.1431 22.1418 27.6508V29.3707H21.4639V26.3026H22.1358V26.6751ZM17.1713 26.3025H16.0625V25.3716H15.3771V26.3025H14.7447V26.9123H15.3771V28.3119C15.3771 29.0238 15.6578 29.4478 16.4597 29.4478C16.7539 29.4478 17.0929 29.3581 17.3079 29.2104L17.1123 28.6388C16.9099 28.7542 16.6882 28.8122 16.512 28.8122C16.173 28.8122 16.0625 28.6065 16.0625 28.2987V26.9123H17.1713V26.3025ZM7.03432 27.445V29.3707H6.34891V27.6632C6.34891 27.1431 6.12716 26.8543 5.66424 26.8543C5.21402 26.8543 4.90118 27.1372 4.90118 27.6699V29.3707H4.21577V27.6632C4.21577 27.1431 3.98805 26.8543 3.53783 26.8543C3.07417 26.8543 2.77402 27.1372 2.77402 27.6699V29.3707H2.08936L2.08936 26.3026H2.76805V26.6809C3.02265 26.3217 3.34818 26.2254 3.68118 26.2254C4.15753 26.2254 4.49651 26.4311 4.71154 26.7713C4.99899 26.3408 5.40964 26.2188 5.8076 26.2254C6.56468 26.232 7.03432 26.7199 7.03432 27.445Z" fill="#231F20"/>
<path d="M24.2599 21.089H13.9847V2.91821H24.2599V21.089Z" fill="#FF5F00"/>
<path d="M14.6366 12.0041C14.6366 8.31803 16.3904 5.03461 19.1216 2.91865C17.1244 1.37135 14.6037 0.447823 11.8643 0.447823C5.37907 0.447823 0.122009 5.62164 0.122009 12.0041C0.122009 18.3865 5.37907 23.5603 11.8643 23.5603C14.6037 23.5603 17.1244 22.6368 19.1216 21.0895C16.3904 18.9735 14.6366 15.6901 14.6366 12.0041Z" fill="#EB001B"/>
<path d="M38.122 12.0041C38.122 18.3865 32.865 23.5603 26.3797 23.5603C23.6403 23.5603 21.1196 22.6368 19.1216 21.0895C21.8536 18.9735 23.6074 15.6901 23.6074 12.0041C23.6074 8.31803 21.8536 5.03461 19.1216 2.91865C21.1196 1.37135 23.6403 0.447823 26.3797 0.447823C32.865 0.447823 38.122 5.62164 38.122 12.0041Z" fill="#F79E1B"/>
</svg>
