<svg width="38" height="29" viewBox="0 0 38 29" fill="none" xmlns="http://www.w3.org/2000/svg">
<path d="M16.4666 20.4557H13.3884L15.3137 8.58203H18.3918L16.4666 20.4557Z" fill="#1434CB"/>
<path d="M27.6257 8.8727C27.0185 8.63245 26.0555 8.36719 24.8647 8.36719C21.8248 8.36719 19.6841 9.98394 19.671 12.2954C19.6458 14.0008 21.2037 14.948 22.3688 15.5167C23.5598 16.0977 23.9646 16.477 23.9646 16.9949C23.9525 17.7903 23.0023 18.157 22.116 18.157C20.887 18.157 20.2285 17.968 19.2278 17.5254L18.8225 17.3357L18.3917 20.0011C19.1137 20.3291 20.4438 20.6203 21.8248 20.633C25.0547 20.633 27.1575 19.0413 27.1824 16.578C27.1947 15.2264 26.3721 14.1907 24.5986 13.3444C23.5219 12.8011 22.8626 12.4348 22.8626 11.8789C22.8752 11.3735 23.4202 10.8559 24.6356 10.8559C25.6363 10.8306 26.3716 11.0705 26.9286 11.3106L27.207 11.4367L27.6257 8.8727V8.8727Z" fill="#1434CB"/>
<path d="M31.7169 16.2493C31.9704 15.5671 32.9459 12.9271 32.9459 12.9271C32.9331 12.9525 33.1989 12.2324 33.3509 11.7904L33.566 12.8135C33.566 12.8135 34.149 15.6556 34.2755 16.2493C33.7945 16.2493 32.3249 16.2493 31.7169 16.2493ZM35.5167 8.58203H33.1356C32.4014 8.58203 31.8435 8.79659 31.5267 9.56719L26.9543 20.4555H30.1843C30.1843 20.4555 30.716 18.99 30.8303 18.6744C31.1847 18.6744 34.3267 18.6744 34.7826 18.6744C34.8709 19.0913 35.1499 20.4555 35.1499 20.4555H38L35.5167 8.58203V8.58203Z" fill="#1434CB"/>
<path d="M10.8173 8.58203L7.80263 16.6787L7.47321 15.0366C6.91586 13.1418 5.16792 11.0832 3.2173 10.0596L5.9786 20.4431H9.23378L14.0723 8.58203H10.8173V8.58203Z" fill="#1434CB"/>
<path d="M5.0033 8.58203H0.0506674L0 8.82194C3.86336 9.80727 6.42199 12.1824 7.47322 15.0371L6.39657 9.58012C6.21932 8.82177 5.6746 8.60705 5.0033 8.58203Z" fill="#1434CB"/>
</svg>
