<svg width="23" height="23" viewBox="0 0 23 23" xmlns="http://www.w3.org/2000/svg">
<path d="M11.5 0.972656C5.42035 0.972656 0.5 5.89245 0.5 11.9727C0.5 14.9109 1.64421 17.6732 3.72184 19.7508C5.79947 21.8284 8.5618 22.9727 11.5 22.9727C17.5796 22.9727 22.5 18.0529 22.5 11.9727C22.5 5.89301 17.5802 0.972656 11.5 0.972656ZM16.1163 8.33505L13.5473 13.6769C13.4752 13.8269 13.3542 13.9479 13.2043 14.02L7.86231 16.589C7.23948 16.8887 6.58386 16.2336 6.88361 15.6103L9.45263 10.2683C9.52473 10.1184 9.64573 9.99738 9.79569 9.92528L15.1376 7.35627C15.7605 7.05677 16.4162 7.71153 16.1163 8.33505Z" />
</svg>
