<svg width="23" height="22" viewBox="0 0 23 22" fill="none" xmlns="http://www.w3.org/2000/svg">
<path d="M22.9947 8.37111C22.9947 8.58737 22.9947 8.80363 22.9947 9.01333C22.9685 9.11163 22.9423 9.20993 22.9227 9.30167C22.2346 12.7814 21.5465 16.2546 20.8518 19.7344C20.7863 20.0752 20.6684 20.3963 20.4718 20.6846C19.9409 21.4513 19.1873 21.7659 18.283 21.7659C14.0889 21.7659 9.90141 21.7659 5.70735 21.7659C5.48454 21.7659 5.26173 21.7528 5.04547 21.7004C4.00351 21.4513 3.36785 20.7895 3.15159 19.7475C2.90257 18.5614 2.67976 17.3621 2.44384 16.176C1.97201 13.7972 1.50018 11.4249 1.02834 9.0461C0.831748 8.05001 1.51984 7.13256 2.52248 7.0277C2.83703 6.99494 3.15159 6.99494 3.46614 7.00804C3.67585 7.0146 3.80691 6.94251 3.93798 6.77868C5.55662 4.76684 7.18182 2.755 8.80047 0.749715C8.88566 0.644864 8.97741 0.546565 9.08226 0.45482C9.61962 0.00920096 10.4257 0.27133 10.6092 0.939759C10.7075 1.30674 10.5698 1.60819 10.3405 1.88998C9.01017 3.50862 7.68642 5.13382 6.36267 6.75902C6.3168 6.818 6.24471 6.86387 6.24471 6.95562C6.32335 7.00804 6.41509 6.98183 6.49373 6.98183C8.558 6.98183 10.6288 6.98183 12.6931 6.98183C14.22 6.98183 15.7403 6.98183 17.2672 6.98183C17.3328 6.98183 17.4311 7.02115 17.4638 6.94906C17.5097 6.86387 17.4049 6.818 17.359 6.75902C17.0706 6.40515 16.7823 6.05127 16.4874 5.6974C15.4585 4.44573 14.4362 3.20062 13.4139 1.94896C13.1649 1.64751 13.0273 1.31329 13.1518 0.913546C13.2632 0.566225 13.4926 0.336862 13.853 0.264777C14.279 0.186138 14.6132 0.343415 14.8884 0.684183C16.3891 2.5453 17.8963 4.39986 19.4036 6.25442C19.6002 6.49034 19.7444 6.80489 20.0065 6.93596C20.2817 7.07358 20.6225 6.96872 20.937 6.98183C21.2057 6.99494 21.481 6.95562 21.7431 7.04081C22.4115 7.25707 22.8244 7.70269 22.9947 8.37111ZM12.8962 14.4853C12.8962 13.83 12.9093 13.1681 12.8897 12.5128C12.8766 11.9754 12.3654 11.5887 11.8346 11.687C11.3759 11.7722 11.0744 12.1654 11.0744 12.7093C11.0679 13.8889 11.0744 15.0685 11.0744 16.2481C11.0744 16.3923 11.0941 16.5364 11.14 16.6675C11.2776 17.0738 11.7035 17.3359 12.1098 17.2769C12.5424 17.2114 12.8766 16.8575 12.8831 16.4119C12.9028 15.7697 12.8962 15.1275 12.8962 14.4853ZM7.37842 14.4656C7.37842 15.1209 7.36531 15.7828 7.38497 16.4381C7.39808 16.9624 7.90923 17.3621 8.42038 17.2769C8.89221 17.1918 9.19366 16.8051 9.20021 16.2415C9.20677 15.062 9.20021 13.8824 9.20021 12.7028C9.20021 12.5717 9.18056 12.4276 9.14124 12.303C9.02328 11.9033 8.61042 11.6281 8.20412 11.6674C7.7454 11.7198 7.39152 12.0671 7.38497 12.5128C7.36531 13.1681 7.37842 13.8168 7.37842 14.4656ZM14.7967 14.4787C14.7967 14.4787 14.8032 14.4787 14.7967 14.4787C14.8032 15.1406 14.7901 15.809 14.8032 16.4709C14.8163 16.91 15.2095 17.2704 15.6551 17.2835C16.1073 17.3032 16.5595 16.9624 16.5726 16.5233C16.6185 15.1603 16.6119 13.7906 16.5726 12.4276C16.5595 11.9623 16.0549 11.6084 15.5962 11.6739C15.1309 11.7395 14.8098 12.0737 14.8032 12.539C14.7836 13.1877 14.7967 13.8365 14.7967 14.4787Z" />
</svg>
