<svg width="145" height="146" viewBox="0 0 145 146" fill="none" xmlns="http://www.w3.org/2000/svg">
<path d="M102.232 29.2668H85.7212L83.4911 18.7153C82.8077 15.4828 79.9289 13.1367 76.6461 13.1367H53.4214C50.1386 13.1367 47.2598 15.4828 46.5764 18.7153L44.3463 29.2668H27.8352C22.4045 29.2668 17.9862 33.7145 17.9862 39.1815V88.8497C17.9862 94.3169 22.4045 98.7646 27.8352 98.7646H102.232C107.663 98.7646 112.081 94.3169 112.081 88.8497V39.1815C112.081 33.7145 107.663 29.2668 102.232 29.2668ZM52.08 19.8939C52.2139 19.2607 52.778 18.8008 53.4217 18.8008H76.6464C77.2898 18.8008 77.8541 19.2607 77.988 19.8939L79.9691 29.2668H50.0989L52.08 19.8939ZM106.455 88.8494C106.455 91.1932 104.561 93.1003 102.232 93.1003H27.8352C25.5069 93.1003 23.6128 91.1935 23.6128 88.8494V39.1812C23.6128 36.8374 25.5069 34.9306 27.8352 34.9306H102.232C104.56 34.9306 106.454 36.8371 106.454 39.1812V88.8494H106.455Z" fill="#D9D9D9"/>
<path d="M79.8097 48.5395C78.5953 49.5148 78.3964 51.2967 79.3655 52.5196C81.9771 55.8144 83.3576 59.7891 83.3576 64.0148C83.3576 74.1858 75.1377 82.4607 65.0338 82.4607C54.93 82.4607 46.7101 74.1858 46.7101 64.0148C46.7101 59.3612 48.4364 54.9175 51.5706 51.5018C54.688 48.105 58.9144 46.0209 63.4719 45.6346C65.0201 45.5032 66.1693 44.1334 66.039 42.5746C65.9085 41.0159 64.5466 39.8607 62.9996 39.9904C57.038 40.4959 51.5116 43.2192 47.4379 47.6581C43.3404 52.1234 41.0839 57.9319 41.0839 64.0145C41.0839 77.3087 51.8278 88.1245 65.0341 88.1245C78.2405 88.1245 88.9844 77.3089 88.9844 64.0145C88.9844 58.5705 87.1304 53.2338 83.7638 48.9866C82.7943 47.7643 81.0242 47.5641 79.8097 48.5395Z" fill="#D9D9D9"/>
<path d="M71.946 46.7148C72.8552 47.6497 74.3586 47.8309 75.4963 47.0688C76.2618 46.55 76.7482 45.6859 76.7482 44.7126C76.7482 43.9677 76.45 43.2371 75.9239 42.7103C74.9829 41.763 73.498 41.6058 72.3736 42.3592C70.9129 43.3226 70.687 45.4475 71.946 46.7148Z" fill="#D9D9D9"/>
<circle cx="107.027" cy="96.1792" r="20.5425" fill="white" stroke="#D9D9D9" stroke-width="5"/>
<path d="M107.029 86.3259L107.025 106.03M97.1746 96.1765L116.879 96.1799" stroke="#D9D9D9" stroke-width="5" stroke-linecap="round" stroke-linejoin="round"/>
</svg>
